<?xml version="1.0" encoding="UTF-8"?>
<svg xmlns="http://www.w3.org/2000/svg" viewBox="0 0 320 80" role="img">
  <title>Glendale seasonal climate ribbon</title>
  <path d="M10.0 17.6 L12.1 17.2 L12.1 62.8 L10.0 62.4 Z" fill="rgb(218, 188, 102)"/><path d="M11.6 17.2 L13.8 16.8 L13.8 63.2 L11.6 62.8 Z" fill="rgb(218, 188, 102)"/><path d="M13.3 16.8 L15.4 16.5 L15.4 63.5 L13.3 63.2 Z" fill="rgb(218, 188, 101)"/><path d="M14.9 16.5 L17.1 16.2 L17.1 63.8 L14.9 63.5 Z" fill="rgb(218, 188, 101)"/><path d="M16.6 16.2 L18.7 15.9 L18.7 64.1 L16.6 63.8 Z" fill="rgb(218, 187, 101)"/><path d="M18.2 15.9 L20.4 15.7 L20.4 64.3 L18.2 64.1 Z" fill="rgb(218, 187, 101)"/><path d="M19.9 15.7 L22.0 15.6 L22.0 64.4 L19.9 64.3 Z" fill="rgb(218, 187, 101)"/><path d="M21.5 15.6 L23.7 15.5 L23.7 64.5 L21.5 64.4 Z" fill="rgb(218, 187, 101)"/><path d="M23.2 15.5 L25.3 15.5 L25.3 64.5 L23.2 64.5 Z" fill="rgb(218, 187, 101)"/><path d="M24.8 15.5 L26.9 15.5 L26.9 64.5 L24.8 64.5 Z" fill="rgb(218, 187, 101)"/><path d="M26.4 15.5 L28.6 15.4 L28.6 64.6 L26.4 64.5 Z" fill="rgb(218, 186, 100)"/><path d="M28.1 15.4 L30.2 15.3 L30.2 64.7 L28.1 64.6 Z" fill="rgb(218, 186, 100)"/><path d="M29.7 15.3 L31.9 15.1 L31.9 64.9 L29.7 64.7 Z" fill="rgb(218, 185, 99)"/><path d="M31.4 15.1 L33.5 15.0 L33.5 65.0 L31.4 64.9 Z" fill="rgb(218, 184, 99)"/><path d="M33.0 15.0 L35.2 14.9 L35.2 65.1 L33.0 65.0 Z" fill="rgb(218, 183, 98)"/><path d="M34.7 14.9 L36.8 14.7 L36.8 65.3 L34.7 65.1 Z" fill="rgb(218, 182, 97)"/><path d="M36.3 14.7 L38.4 14.6 L38.4 65.4 L36.3 65.3 Z" fill="rgb(218, 181, 97)"/><path d="M37.9 14.6 L40.1 14.5 L40.1 65.5 L37.9 65.4 Z" fill="rgb(218, 180, 96)"/><path d="M39.6 14.5 L41.7 14.4 L41.7 65.6 L39.6 65.5 Z" fill="rgb(219, 179, 95)"/><path d="M41.2 14.4 L43.4 14.3 L43.4 65.7 L41.2 65.6 Z" fill="rgb(219, 178, 95)"/><path d="M42.9 14.3 L45.0 14.2 L45.0 65.8 L42.9 65.7 Z" fill="rgb(219, 177, 94)"/><path d="M44.5 14.2 L46.7 14.2 L46.7 65.8 L44.5 65.8 Z" fill="rgb(219, 177, 94)"/><path d="M46.2 14.2 L48.3 14.2 L48.3 65.8 L46.2 65.8 Z" fill="rgb(219, 176, 94)"/><path d="M47.8 14.2 L50.0 14.3 L50.0 65.7 L47.8 65.8 Z" fill="rgb(219, 176, 94)"/><path d="M49.5 14.3 L51.6 14.6 L51.6 65.4 L49.5 65.7 Z" fill="rgb(219, 176, 93)"/><path d="M51.1 14.6 L53.2 14.9 L53.2 65.1 L51.1 65.4 Z" fill="rgb(219, 175, 93)"/><path d="M52.7 14.9 L54.9 15.3 L54.9 64.7 L52.7 65.1 Z" fill="rgb(219, 173, 92)"/><path d="M54.4 15.3 L56.5 15.8 L56.5 64.2 L54.4 64.7 Z" fill="rgb(219, 171, 90)"/><path d="M56.0 15.8 L58.2 16.3 L58.2 63.7 L56.0 64.2 Z" fill="rgb(219, 169, 89)"/><path d="M57.7 16.3 L59.8 16.9 L59.8 63.1 L57.7 63.7 Z" fill="rgb(220, 167, 88)"/><path d="M59.3 16.9 L61.5 17.4 L61.5 62.6 L59.3 63.1 Z" fill="rgb(220, 165, 86)"/><path d="M61.0 17.4 L63.1 17.9 L63.1 62.1 L61.0 62.6 Z" fill="rgb(220, 162, 85)"/><path d="M62.6 17.9 L64.7 18.4 L64.7 61.6 L62.6 62.1 Z" fill="rgb(220, 160, 83)"/><path d="M64.2 18.4 L66.4 18.8 L66.4 61.2 L64.2 61.6 Z" fill="rgb(221, 158, 82)"/><path d="M65.9 18.8 L68.0 19.1 L68.0 60.9 L65.9 61.2 Z" fill="rgb(221, 156, 81)"/><path d="M67.5 19.1 L69.7 19.4 L69.7 60.6 L67.5 60.9 Z" fill="rgb(221, 155, 80)"/><path d="M69.2 19.4 L71.3 19.5 L71.3 60.5 L69.2 60.6 Z" fill="rgb(221, 154, 79)"/><path d="M70.8 19.5 L73.0 19.6 L73.0 60.4 L70.8 60.5 Z" fill="rgb(221, 154, 79)"/><path d="M72.5 19.6 L74.6 20.0 L74.6 60.0 L72.5 60.4 Z" fill="rgb(221, 153, 79)"/><path d="M74.1 20.0 L76.3 20.7 L76.3 59.3 L74.1 60.0 Z" fill="rgb(221, 153, 78)"/><path d="M75.8 20.7 L77.9 21.7 L77.9 58.3 L75.8 59.3 Z" fill="rgb(221, 151, 77)"/><path d="M77.4 21.7 L79.5 22.9 L79.5 57.1 L77.4 58.3 Z" fill="rgb(221, 150, 76)"/><path d="M79.0 22.9 L81.2 24.2 L81.2 55.8 L79.0 57.1 Z" fill="rgb(222, 148, 75)"/><path d="M80.7 24.2 L82.8 25.6 L82.8 54.4 L80.7 55.8 Z" fill="rgb(222, 145, 73)"/><path d="M82.3 25.6 L84.5 27.0 L84.5 53.0 L82.3 54.4 Z" fill="rgb(222, 143, 72)"/><path d="M84.0 27.0 L86.1 28.5 L86.1 51.5 L84.0 53.0 Z" fill="rgb(222, 140, 70)"/><path d="M85.6 28.5 L87.8 29.9 L87.8 50.1 L85.6 51.5 Z" fill="rgb(222, 138, 68)"/><path d="M87.3 29.9 L89.4 31.1 L89.4 48.9 L87.3 50.1 Z" fill="rgb(223, 135, 67)"/><path d="M88.9 31.1 L91.0 32.3 L91.0 47.7 L88.9 48.9 Z" fill="rgb(223, 133, 65)"/><path d="M90.5 32.3 L92.7 33.2 L92.7 46.8 L90.5 47.7 Z" fill="rgb(223, 131, 64)"/><path d="M92.2 33.2 L94.3 33.8 L94.3 46.2 L92.2 46.8 Z" fill="rgb(223, 129, 63)"/><path d="M93.8 33.8 L96.0 34.2 L96.0 45.8 L93.8 46.2 Z" fill="rgb(223, 128, 62)"/><path d="M95.5 34.2 L97.6 34.2 L97.6 45.8 L95.5 45.8 Z" fill="rgb(223, 128, 62)"/><path d="M97.1 34.2 L99.3 34.3 L99.3 45.7 L97.1 45.8 Z" fill="rgb(223, 127, 62)"/><path d="M98.8 34.3 L100.9 34.4 L100.9 45.6 L98.8 45.7 Z" fill="rgb(224, 126, 61)"/><path d="M100.4 34.4 L102.6 34.5 L102.6 45.5 L100.4 45.6 Z" fill="rgb(224, 125, 60)"/><path d="M102.1 34.5 L104.2 34.7 L104.2 45.3 L102.1 45.5 Z" fill="rgb(224, 123, 58)"/><path d="M103.7 34.7 L105.8 34.9 L105.8 45.1 L103.7 45.3 Z" fill="rgb(224, 121, 58)"/><path d="M105.3 34.9 L107.5 35.1 L107.5 44.9 L105.3 45.1 Z" fill="rgb(224, 119, 57)"/><path d="M107.0 35.1 L109.1 35.4 L109.1 44.6 L107.0 44.9 Z" fill="rgb(225, 117, 57)"/><path d="M108.6 35.4 L110.8 35.6 L110.8 44.4 L108.6 44.6 Z" fill="rgb(225, 114, 56)"/><path d="M110.3 35.6 L112.4 35.8 L112.4 44.2 L110.3 44.4 Z" fill="rgb(225, 112, 56)"/><path d="M111.9 35.8 L114.1 36.0 L114.1 44.0 L111.9 44.2 Z" fill="rgb(225, 110, 56)"/><path d="M113.6 36.0 L115.7 36.2 L115.7 43.8 L113.6 44.0 Z" fill="rgb(225, 108, 55)"/><path d="M115.2 36.2 L117.3 36.3 L117.3 43.7 L115.2 43.8 Z" fill="rgb(226, 106, 55)"/><path d="M116.8 36.3 L119.0 36.5 L119.0 43.5 L116.8 43.7 Z" fill="rgb(226, 105, 54)"/><path d="M118.5 36.5 L120.6 36.5 L120.6 43.5 L118.5 43.5 Z" fill="rgb(226, 104, 54)"/><path d="M120.1 36.5 L122.3 36.5 L122.3 43.5 L120.1 43.5 Z" fill="rgb(226, 103, 54)"/><path d="M121.8 36.5 L123.9 36.6 L123.9 43.4 L121.8 43.5 Z" fill="rgb(226, 103, 54)"/><path d="M123.4 36.6 L125.6 36.7 L125.6 43.3 L123.4 43.4 Z" fill="rgb(226, 102, 54)"/><path d="M125.1 36.7 L127.2 36.8 L127.2 43.2 L125.1 43.3 Z" fill="rgb(226, 101, 54)"/><path d="M126.7 36.8 L128.9 36.9 L128.9 43.1 L126.7 43.2 Z" fill="rgb(226, 100, 53)"/><path d="M128.4 36.9 L130.5 37.1 L130.5 42.9 L128.4 43.1 Z" fill="rgb(226, 98, 53)"/><path d="M130.0 37.1 L132.1 37.3 L132.1 42.7 L130.0 42.9 Z" fill="rgb(227, 96, 53)"/><path d="M131.6 37.3 L133.8 37.5 L133.8 42.5 L131.6 42.7 Z" fill="rgb(227, 94, 52)"/><path d="M133.3 37.5 L135.4 37.7 L135.4 42.3 L133.3 42.5 Z" fill="rgb(227, 92, 52)"/><path d="M134.9 37.7 L137.1 37.9 L137.1 42.1 L134.9 42.3 Z" fill="rgb(227, 89, 51)"/><path d="M136.6 37.9 L138.7 38.1 L138.7 41.9 L136.6 42.1 Z" fill="rgb(228, 87, 51)"/><path d="M138.2 38.1 L140.4 38.3 L140.4 41.7 L138.2 41.9 Z" fill="rgb(228, 85, 50)"/><path d="M139.9 38.3 L142.0 38.4 L142.0 41.6 L139.9 41.7 Z" fill="rgb(228, 83, 50)"/><path d="M141.5 38.4 L143.7 38.5 L143.7 41.5 L141.5 41.6 Z" fill="rgb(228, 81, 49)"/><path d="M143.2 38.5 L145.3 38.6 L145.3 41.4 L143.2 41.5 Z" fill="rgb(228, 80, 49)"/><path d="M144.8 38.6 L146.9 38.6 L146.9 41.4 L144.8 41.4 Z" fill="rgb(228, 79, 49)"/><path d="M146.4 38.6 L148.6 38.4 L148.6 41.6 L146.4 41.4 Z" fill="rgb(229, 78, 49)"/><path d="M148.1 38.4 L150.2 37.7 L150.2 42.3 L148.1 41.6 Z" fill="rgb(229, 78, 49)"/><path d="M149.7 37.7 L151.9 36.6 L151.9 43.4 L149.7 42.3 Z" fill="rgb(229, 78, 49)"/><path d="M151.4 36.6 L153.5 35.2 L153.5 44.8 L151.4 43.4 Z" fill="rgb(229, 77, 49)"/><path d="M153.0 35.2 L155.2 33.6 L155.2 46.4 L153.0 44.8 Z" fill="rgb(229, 76, 49)"/><path d="M154.7 33.6 L156.8 31.8 L156.8 48.2 L154.7 46.4 Z" fill="rgb(229, 76, 48)"/><path d="M156.3 31.8 L158.4 29.9 L158.4 50.1 L156.3 48.2 Z" fill="rgb(229, 75, 48)"/><path d="M157.9 29.9 L160.1 28.0 L160.1 52.0 L157.9 50.1 Z" fill="rgb(229, 74, 48)"/><path d="M159.6 28.0 L161.7 26.0 L161.7 54.0 L159.6 52.0 Z" fill="rgb(229, 72, 48)"/><path d="M161.2 26.0 L163.4 24.2 L163.4 55.8 L161.2 54.0 Z" fill="rgb(229, 71, 48)"/><path d="M162.9 24.2 L165.0 22.5 L165.0 57.5 L162.9 55.8 Z" fill="rgb(229, 70, 47)"/><path d="M164.5 22.5 L166.7 21.1 L166.7 58.9 L164.5 57.5 Z" fill="rgb(229, 69, 47)"/><path d="M166.2 21.1 L168.3 19.9 L168.3 60.1 L166.2 58.9 Z" fill="rgb(230, 69, 47)"/><path d="M167.8 19.9 L170.0 19.1 L170.0 60.9 L167.8 60.1 Z" fill="rgb(230, 68, 47)"/><path d="M169.5 19.1 L171.6 18.8 L171.6 61.2 L169.5 60.9 Z" fill="rgb(230, 68, 47)"/><path d="M171.1 18.8 L173.2 18.7 L173.2 61.3 L171.1 61.2 Z" fill="rgb(230, 67, 47)"/><path d="M172.7 18.7 L174.9 18.6 L174.9 61.4 L172.7 61.3 Z" fill="rgb(230, 67, 47)"/><path d="M174.4 18.6 L176.5 18.3 L176.5 61.7 L174.4 61.4 Z" fill="rgb(230, 67, 47)"/><path d="M176.0 18.3 L178.2 17.9 L178.2 62.1 L176.0 61.7 Z" fill="rgb(230, 67, 47)"/><path d="M177.7 17.9 L179.8 17.5 L179.8 62.5 L177.7 62.1 Z" fill="rgb(230, 68, 47)"/><path d="M179.3 17.5 L181.5 17.0 L181.5 63.0 L179.3 62.5 Z" fill="rgb(230, 68, 47)"/><path d="M181.0 17.0 L183.1 16.4 L183.1 63.6 L181.0 63.0 Z" fill="rgb(230, 68, 47)"/><path d="M182.6 16.4 L184.7 15.9 L184.7 64.1 L182.6 63.6 Z" fill="rgb(230, 68, 47)"/><path d="M184.2 15.9 L186.4 15.3 L186.4 64.7 L184.2 64.1 Z" fill="rgb(230, 68, 47)"/><path d="M185.9 15.3 L188.0 14.8 L188.0 65.2 L185.9 64.7 Z" fill="rgb(230, 69, 47)"/><path d="M187.5 14.8 L189.7 14.3 L189.7 65.7 L187.5 65.2 Z" fill="rgb(230, 69, 47)"/><path d="M189.2 14.3 L191.3 13.8 L191.3 66.2 L189.2 65.7 Z" fill="rgb(229, 69, 47)"/><path d="M190.8 13.8 L193.0 13.5 L193.0 66.5 L190.8 66.2 Z" fill="rgb(229, 69, 47)"/><path d="M192.5 13.5 L194.6 13.2 L194.6 66.8 L192.5 66.5 Z" fill="rgb(229, 69, 47)"/><path d="M194.1 13.2 L196.3 13.0 L196.3 67.0 L194.1 66.8 Z" fill="rgb(229, 69, 47)"/><path d="M195.8 13.0 L197.9 13.0 L197.9 67.0 L195.8 67.0 Z" fill="rgb(229, 69, 47)"/><path d="M197.4 13.0 L199.5 13.2 L199.5 66.8 L197.4 67.0 Z" fill="rgb(229, 69, 47)"/><path d="M199.0 13.2 L201.2 13.6 L201.2 66.4 L199.0 66.8 Z" fill="rgb(229, 70, 47)"/><path d="M200.7 13.6 L202.8 14.3 L202.8 65.7 L200.7 66.4 Z" fill="rgb(229, 70, 47)"/><path d="M202.3 14.3 L204.5 15.1 L204.5 64.9 L202.3 65.7 Z" fill="rgb(229, 71, 47)"/><path d="M204.0 15.1 L206.1 16.0 L206.1 64.0 L204.0 64.9 Z" fill="rgb(229, 72, 48)"/><path d="M205.6 16.0 L207.8 17.0 L207.8 63.0 L205.6 64.0 Z" fill="rgb(229, 73, 48)"/><path d="M207.3 17.0 L209.4 18.0 L209.4 62.0 L207.3 63.0 Z" fill="rgb(229, 74, 48)"/><path d="M208.9 18.0 L211.0 19.1 L211.0 60.9 L208.9 62.0 Z" fill="rgb(229, 76, 48)"/><path d="M210.5 19.1 L212.7 20.1 L212.7 59.9 L210.5 60.9 Z" fill="rgb(229, 77, 49)"/><path d="M212.2 20.1 L214.3 21.1 L214.3 58.9 L212.2 59.9 Z" fill="rgb(229, 78, 49)"/><path d="M213.8 21.1 L216.0 22.0 L216.0 58.0 L213.8 58.9 Z" fill="rgb(228, 80, 49)"/><path d="M215.5 22.0 L217.6 22.8 L217.6 57.2 L215.5 58.0 Z" fill="rgb(228, 81, 49)"/><path d="M217.1 22.8 L219.3 23.3 L219.3 56.7 L217.1 57.2 Z" fill="rgb(228, 82, 50)"/><path d="M218.8 23.3 L220.9 23.7 L220.9 56.3 L218.8 56.7 Z" fill="rgb(228, 82, 50)"/><path d="M220.4 23.7 L222.6 23.8 L222.6 56.2 L220.4 56.3 Z" fill="rgb(228, 83, 50)"/><path d="M222.1 23.8 L224.2 23.9 L224.2 56.1 L222.1 56.2 Z" fill="rgb(228, 83, 50)"/><path d="M223.7 23.9 L225.8 24.0 L225.8 56.0 L223.7 56.1 Z" fill="rgb(228, 83, 50)"/><path d="M225.3 24.0 L227.5 24.2 L227.5 55.8 L225.3 56.0 Z" fill="rgb(228, 84, 50)"/><path d="M227.0 24.2 L229.1 24.4 L229.1 55.6 L227.0 55.8 Z" fill="rgb(228, 86, 51)"/><path d="M228.6 24.4 L230.8 24.7 L230.8 55.3 L228.6 55.6 Z" fill="rgb(228, 88, 51)"/><path d="M230.3 24.7 L232.4 25.0 L232.4 55.0 L230.3 55.3 Z" fill="rgb(227, 90, 51)"/><path d="M231.9 25.0 L234.1 25.3 L234.1 54.7 L231.9 55.0 Z" fill="rgb(227, 93, 52)"/><path d="M233.6 25.3 L235.7 25.6 L235.7 54.4 L233.6 54.7 Z" fill="rgb(227, 96, 53)"/><path d="M235.2 25.6 L237.3 25.9 L237.3 54.1 L235.2 54.4 Z" fill="rgb(226, 98, 53)"/><path d="M236.8 25.9 L239.0 26.2 L239.0 53.8 L236.8 54.1 Z" fill="rgb(226, 101, 54)"/><path d="M238.5 26.2 L240.6 26.5 L240.6 53.5 L238.5 53.8 Z" fill="rgb(226, 104, 54)"/><path d="M240.1 26.5 L242.3 26.7 L242.3 53.3 L240.1 53.5 Z" fill="rgb(226, 106, 55)"/><path d="M241.8 26.7 L243.9 26.9 L243.9 53.1 L241.8 53.3 Z" fill="rgb(225, 108, 55)"/><path d="M243.4 26.9 L245.6 27.0 L245.6 53.0 L243.4 53.1 Z" fill="rgb(225, 110, 56)"/><path d="M245.1 27.0 L247.2 27.1 L247.2 52.9 L245.1 53.0 Z" fill="rgb(225, 111, 56)"/><path d="M246.7 27.1 L248.9 27.1 L248.9 52.9 L246.7 52.9 Z" fill="rgb(225, 112, 56)"/><path d="M248.4 27.1 L250.5 27.0 L250.5 53.0 L248.4 52.9 Z" fill="rgb(225, 112, 56)"/><path d="M250.0 27.0 L252.1 27.0 L252.1 53.0 L250.0 53.0 Z" fill="rgb(225, 113, 56)"/><path d="M251.6 27.0 L253.8 26.9 L253.8 53.1 L251.6 53.0 Z" fill="rgb(225, 114, 56)"/><path d="M253.3 26.9 L255.4 26.8 L255.4 53.2 L253.3 53.1 Z" fill="rgb(225, 116, 57)"/><path d="M254.9 26.8 L257.1 26.7 L257.1 53.3 L254.9 53.2 Z" fill="rgb(224, 119, 57)"/><path d="M256.6 26.7 L258.7 26.6 L258.7 53.4 L256.6 53.3 Z" fill="rgb(224, 121, 58)"/><path d="M258.2 26.6 L260.4 26.5 L260.4 53.5 L258.2 53.4 Z" fill="rgb(224, 125, 60)"/><path d="M259.9 26.5 L262.0 26.4 L262.0 53.6 L259.9 53.5 Z" fill="rgb(223, 130, 63)"/><path d="M261.5 26.4 L263.7 26.3 L263.7 53.7 L261.5 53.6 Z" fill="rgb(223, 134, 66)"/><path d="M263.2 26.3 L265.3 26.2 L265.3 53.8 L263.2 53.7 Z" fill="rgb(222, 139, 69)"/><path d="M264.8 26.2 L266.9 26.1 L266.9 53.9 L264.8 53.8 Z" fill="rgb(222, 143, 72)"/><path d="M266.4 26.1 L268.6 26.0 L268.6 54.0 L266.4 53.9 Z" fill="rgb(222, 147, 74)"/><path d="M268.1 26.0 L270.2 26.0 L270.2 54.0 L268.1 54.0 Z" fill="rgb(221, 149, 76)"/><path d="M269.7 26.0 L271.9 25.9 L271.9 54.1 L269.7 54.0 Z" fill="rgb(221, 152, 77)"/><path d="M271.4 25.9 L273.5 25.9 L273.5 54.1 L271.4 54.1 Z" fill="rgb(221, 153, 78)"/><path d="M273.0 25.9 L275.2 25.8 L275.2 54.2 L273.0 54.1 Z" fill="rgb(221, 153, 78)"/><path d="M274.7 25.8 L276.8 25.5 L276.8 54.5 L274.7 54.2 Z" fill="rgb(221, 154, 79)"/><path d="M276.3 25.5 L278.4 25.1 L278.4 54.9 L276.3 54.5 Z" fill="rgb(221, 156, 80)"/><path d="M277.9 25.1 L280.1 24.6 L280.1 55.4 L277.9 54.9 Z" fill="rgb(221, 158, 82)"/><path d="M279.6 24.6 L281.7 24.1 L281.7 55.9 L279.6 55.4 Z" fill="rgb(220, 161, 83)"/><path d="M281.2 24.1 L283.4 23.5 L283.4 56.5 L281.2 55.9 Z" fill="rgb(220, 164, 86)"/><path d="M282.9 23.5 L285.0 22.9 L285.0 57.1 L282.9 56.5 Z" fill="rgb(220, 167, 88)"/><path d="M284.5 22.9 L286.7 22.3 L286.7 57.7 L284.5 57.1 Z" fill="rgb(219, 171, 90)"/><path d="M286.2 22.3 L288.3 21.7 L288.3 58.3 L286.2 57.7 Z" fill="rgb(219, 175, 93)"/><path d="M287.8 21.7 L290.0 21.1 L290.0 58.9 L287.8 58.3 Z" fill="rgb(219, 178, 95)"/><path d="M289.5 21.1 L291.6 20.6 L291.6 59.4 L289.5 58.9 Z" fill="rgb(218, 181, 97)"/><path d="M291.1 20.6 L293.2 20.2 L293.2 59.8 L291.1 59.4 Z" fill="rgb(218, 184, 99)"/><path d="M292.7 20.2 L294.9 19.9 L294.9 60.1 L292.7 59.8 Z" fill="rgb(218, 187, 101)"/><path d="M294.4 19.9 L296.5 19.7 L296.5 60.3 L294.4 60.1 Z" fill="rgb(218, 189, 102)"/><path d="M296.0 19.7 L298.2 19.7 L298.2 60.3 L296.0 60.3 Z" fill="rgb(218, 190, 102)"/><path d="M297.7 19.7 L299.8 19.6 L299.8 60.4 L297.7 60.3 Z" fill="rgb(217, 190, 103)"/><path d="M299.3 19.6 L301.5 19.5 L301.5 60.5 L299.3 60.4 Z" fill="rgb(217, 190, 103)"/><path d="M301.0 19.5 L303.1 19.2 L303.1 60.8 L301.0 60.5 Z" fill="rgb(218, 190, 103)"/><path d="M302.6 19.2 L304.7 18.9 L304.7 61.1 L302.6 60.8 Z" fill="rgb(218, 190, 102)"/><path d="M304.2 18.9 L306.4 18.6 L306.4 61.4 L304.2 61.1 Z" fill="rgb(218, 189, 102)"/><path d="M305.9 18.6 L308.0 18.2 L308.0 61.8 L305.9 61.4 Z" fill="rgb(218, 189, 102)"/><path d="M307.5 18.2 L309.7 17.8 L309.7 62.2 L307.5 61.8 Z" fill="rgb(218, 189, 102)"/><path d="M309.2 17.8 L310.5 17.8 L310.5 62.2 L309.2 62.2 Z" fill="rgb(218, 189, 102)"/>
  <path d="M10.0 17.6 L11.6 17.2 L13.3 16.8 L14.9 16.5 L16.6 16.2 L18.2 15.9 L19.9 15.7 L21.5 15.6 L23.2 15.5 L24.8 15.5 L26.4 15.5 L28.1 15.4 L29.7 15.3 L31.4 15.1 L33.0 15.0 L34.7 14.9 L36.3 14.7 L37.9 14.6 L39.6 14.5 L41.2 14.4 L42.9 14.3 L44.5 14.2 L46.2 14.2 L47.8 14.2 L49.5 14.3 L51.1 14.6 L52.7 14.9 L54.4 15.3 L56.0 15.8 L57.7 16.3 L59.3 16.9 L61.0 17.4 L62.6 17.9 L64.2 18.4 L65.9 18.8 L67.5 19.1 L69.2 19.4 L70.8 19.5 L72.5 19.6 L74.1 20.0 L75.8 20.7 L77.4 21.7 L79.0 22.9 L80.7 24.2 L82.3 25.6 L84.0 27.0 L85.6 28.5 L87.3 29.9 L88.9 31.1 L90.5 32.3 L92.2 33.2 L93.8 33.8 L95.5 34.2 L97.1 34.2 L98.8 34.3 L100.4 34.4 L102.1 34.5 L103.7 34.7 L105.3 34.9 L107.0 35.1 L108.6 35.4 L110.3 35.6 L111.9 35.8 L113.6 36.0 L115.2 36.2 L116.8 36.3 L118.5 36.5 L120.1 36.5 L121.8 36.5 L123.4 36.6 L125.1 36.7 L126.7 36.8 L128.4 36.9 L130.0 37.1 L131.6 37.3 L133.3 37.5 L134.9 37.7 L136.6 37.9 L138.2 38.1 L139.9 38.3 L141.5 38.4 L143.2 38.5 L144.8 38.6 L146.4 38.6 L148.1 38.4 L149.7 37.7 L151.4 36.6 L153.0 35.2 L154.7 33.6 L156.3 31.8 L157.9 29.9 L159.6 28.0 L161.2 26.0 L162.9 24.2 L164.5 22.5 L166.2 21.1 L167.8 19.9 L169.5 19.1 L171.1 18.8 L172.7 18.7 L174.4 18.6 L176.0 18.3 L177.7 17.9 L179.3 17.5 L181.0 17.0 L182.6 16.4 L184.2 15.9 L185.9 15.3 L187.5 14.8 L189.2 14.3 L190.8 13.8 L192.5 13.5 L194.1 13.2 L195.8 13.0 L197.4 13.0 L199.0 13.2 L200.7 13.6 L202.3 14.3 L204.0 15.1 L205.6 16.0 L207.3 17.0 L208.9 18.0 L210.5 19.1 L212.2 20.1 L213.8 21.1 L215.5 22.0 L217.1 22.8 L218.8 23.3 L220.4 23.7 L222.1 23.8 L223.7 23.9 L225.3 24.0 L227.0 24.2 L228.6 24.4 L230.3 24.7 L231.9 25.0 L233.6 25.3 L235.2 25.6 L236.8 25.9 L238.5 26.2 L240.1 26.5 L241.8 26.7 L243.4 26.9 L245.1 27.0 L246.7 27.1 L248.4 27.1 L250.0 27.0 L251.6 27.0 L253.3 26.9 L254.9 26.8 L256.6 26.7 L258.2 26.6 L259.9 26.5 L261.5 26.4 L263.2 26.3 L264.8 26.2 L266.4 26.1 L268.1 26.0 L269.7 26.0 L271.4 25.9 L273.0 25.9 L274.7 25.8 L276.3 25.5 L277.9 25.1 L279.6 24.6 L281.2 24.1 L282.9 23.5 L284.5 22.9 L286.2 22.3 L287.8 21.7 L289.5 21.1 L291.1 20.6 L292.7 20.2 L294.4 19.9 L296.0 19.7 L297.7 19.7 L299.3 19.6 L301.0 19.5 L302.6 19.2 L304.2 18.9 L305.9 18.6 L307.5 18.2 L309.2 17.8 L309.2 62.2 L307.5 61.8 L305.9 61.4 L304.2 61.1 L302.6 60.8 L301.0 60.5 L299.3 60.4 L297.7 60.3 L296.0 60.3 L294.4 60.1 L292.7 59.8 L291.1 59.4 L289.5 58.9 L287.8 58.3 L286.2 57.7 L284.5 57.1 L282.9 56.5 L281.2 55.9 L279.6 55.4 L277.9 54.9 L276.3 54.5 L274.7 54.2 L273.0 54.1 L271.4 54.1 L269.7 54.0 L268.1 54.0 L266.4 53.9 L264.8 53.8 L263.2 53.7 L261.5 53.6 L259.9 53.5 L258.2 53.4 L256.6 53.3 L254.9 53.2 L253.3 53.1 L251.6 53.0 L250.0 53.0 L248.4 52.9 L246.7 52.9 L245.1 53.0 L243.4 53.1 L241.8 53.3 L240.1 53.5 L238.5 53.8 L236.8 54.1 L235.2 54.4 L233.6 54.7 L231.9 55.0 L230.3 55.3 L228.6 55.6 L227.0 55.8 L225.3 56.0 L223.7 56.1 L222.1 56.2 L220.4 56.3 L218.8 56.7 L217.1 57.2 L215.5 58.0 L213.8 58.9 L212.2 59.9 L210.5 60.9 L208.9 62.0 L207.3 63.0 L205.6 64.0 L204.0 64.9 L202.3 65.7 L200.7 66.4 L199.0 66.8 L197.4 67.0 L195.8 67.0 L194.1 66.8 L192.5 66.5 L190.8 66.2 L189.2 65.7 L187.5 65.2 L185.9 64.7 L184.2 64.1 L182.6 63.6 L181.0 63.0 L179.3 62.5 L177.7 62.1 L176.0 61.7 L174.4 61.4 L172.7 61.3 L171.1 61.2 L169.5 60.9 L167.8 60.1 L166.2 58.9 L164.5 57.5 L162.9 55.8 L161.2 54.0 L159.6 52.0 L157.9 50.1 L156.3 48.2 L154.7 46.4 L153.0 44.8 L151.4 43.4 L149.7 42.3 L148.1 41.6 L146.4 41.4 L144.8 41.4 L143.2 41.5 L141.5 41.6 L139.9 41.7 L138.2 41.9 L136.6 42.1 L134.9 42.3 L133.3 42.5 L131.6 42.7 L130.0 42.9 L128.4 43.1 L126.7 43.2 L125.1 43.3 L123.4 43.4 L121.8 43.5 L120.1 43.5 L118.5 43.5 L116.8 43.7 L115.2 43.8 L113.6 44.0 L111.9 44.2 L110.3 44.4 L108.6 44.6 L107.0 44.9 L105.3 45.1 L103.7 45.3 L102.1 45.5 L100.4 45.6 L98.8 45.7 L97.1 45.8 L95.5 45.8 L93.8 46.2 L92.2 46.8 L90.5 47.7 L88.9 48.9 L87.3 50.1 L85.6 51.5 L84.0 53.0 L82.3 54.4 L80.7 55.8 L79.0 57.1 L77.4 58.3 L75.8 59.3 L74.1 60.0 L72.5 60.4 L70.8 60.5 L69.2 60.6 L67.5 60.9 L65.9 61.2 L64.2 61.6 L62.6 62.1 L61.0 62.6 L59.3 63.1 L57.7 63.7 L56.0 64.2 L54.4 64.7 L52.7 65.1 L51.1 65.4 L49.5 65.7 L47.8 65.8 L46.2 65.8 L44.5 65.8 L42.9 65.7 L41.2 65.6 L39.6 65.5 L37.9 65.4 L36.3 65.3 L34.7 65.1 L33.0 65.0 L31.4 64.9 L29.7 64.7 L28.1 64.6 L26.4 64.5 L24.8 64.5 L23.2 64.5 L21.5 64.4 L19.9 64.3 L18.2 64.1 L16.6 63.8 L14.9 63.5 L13.3 63.2 L11.6 62.8 L10.0 62.4 Z" fill="none" stroke="#1a1a1a" stroke-opacity="0.22" stroke-width="0.8" stroke-linejoin="round"/>
</svg>
