<?xml version="1.0" encoding="UTF-8"?>
<svg xmlns="http://www.w3.org/2000/svg" viewBox="0 0 320 80" role="img">
  <title>Memphis seasonal climate ribbon</title>
  <path d="M10.0 16.2 L11.6 16.9 L11.6 63.1 L10.0 63.8 Z" fill="rgb(141, 184, 139)"/><path d="M11.6 16.9 L13.3 17.4 L13.3 62.6 L11.6 63.1 Z" fill="rgb(139, 184, 140)"/><path d="M13.3 17.4 L14.9 18.0 L14.9 62.0 L13.3 62.6 Z" fill="rgb(137, 183, 141)"/><path d="M14.9 18.0 L16.6 18.5 L16.6 61.5 L14.9 62.0 Z" fill="rgb(135, 183, 141)"/><path d="M16.6 18.5 L18.2 18.9 L18.2 61.1 L16.6 61.5 Z" fill="rgb(133, 183, 142)"/><path d="M18.2 18.9 L19.9 19.2 L19.9 60.8 L18.2 61.1 Z" fill="rgb(131, 182, 143)"/><path d="M19.9 19.2 L21.5 19.4 L21.5 60.6 L19.9 60.8 Z" fill="rgb(130, 182, 143)"/><path d="M21.5 19.4 L23.2 19.4 L23.2 60.6 L21.5 60.6 Z" fill="rgb(130, 182, 144)"/><path d="M23.2 19.4 L24.8 19.4 L24.8 60.6 L23.2 60.6 Z" fill="rgb(129, 182, 144)"/><path d="M24.8 19.4 L26.4 19.3 L26.4 60.7 L24.8 60.6 Z" fill="rgb(130, 182, 143)"/><path d="M26.4 19.3 L28.1 19.3 L28.1 60.7 L26.4 60.7 Z" fill="rgb(131, 182, 143)"/><path d="M28.1 19.3 L29.7 19.1 L29.7 60.9 L28.1 60.7 Z" fill="rgb(133, 183, 142)"/><path d="M29.7 19.1 L31.4 19.0 L31.4 61.0 L29.7 60.9 Z" fill="rgb(135, 183, 141)"/><path d="M31.4 19.0 L33.0 18.9 L33.0 61.1 L31.4 61.0 Z" fill="rgb(138, 183, 140)"/><path d="M33.0 18.9 L34.7 18.7 L34.7 61.3 L33.0 61.1 Z" fill="rgb(141, 184, 139)"/><path d="M34.7 18.7 L36.3 18.6 L36.3 61.4 L34.7 61.3 Z" fill="rgb(144, 184, 138)"/><path d="M36.3 18.6 L37.9 18.4 L37.9 61.6 L36.3 61.4 Z" fill="rgb(147, 185, 136)"/><path d="M37.9 18.4 L39.6 18.3 L39.6 61.7 L37.9 61.6 Z" fill="rgb(149, 185, 135)"/><path d="M39.6 18.3 L41.2 18.2 L41.2 61.8 L39.6 61.7 Z" fill="rgb(152, 186, 134)"/><path d="M41.2 18.2 L42.9 18.1 L42.9 61.9 L41.2 61.8 Z" fill="rgb(154, 186, 133)"/><path d="M42.9 18.1 L44.5 18.0 L44.5 62.0 L42.9 61.9 Z" fill="rgb(156, 186, 132)"/><path d="M44.5 18.0 L46.2 18.0 L46.2 62.0 L44.5 62.0 Z" fill="rgb(158, 186, 132)"/><path d="M46.2 18.0 L47.8 18.0 L47.8 62.0 L46.2 62.0 Z" fill="rgb(158, 186, 131)"/><path d="M47.8 18.0 L49.5 17.9 L49.5 62.1 L47.8 62.0 Z" fill="rgb(159, 186, 131)"/><path d="M49.5 17.9 L51.1 17.6 L51.1 62.4 L49.5 62.1 Z" fill="rgb(160, 187, 130)"/><path d="M51.1 17.6 L52.7 17.3 L52.7 62.7 L51.1 62.4 Z" fill="rgb(163, 187, 129)"/><path d="M52.7 17.3 L54.4 16.9 L54.4 63.1 L52.7 62.7 Z" fill="rgb(167, 188, 127)"/><path d="M54.4 16.9 L56.0 16.4 L56.0 63.6 L54.4 63.1 Z" fill="rgb(172, 188, 125)"/><path d="M56.0 16.4 L57.7 15.9 L57.7 64.1 L56.0 63.6 Z" fill="rgb(177, 189, 123)"/><path d="M57.7 15.9 L59.3 15.4 L59.3 64.6 L57.7 64.1 Z" fill="rgb(183, 190, 120)"/><path d="M59.3 15.4 L61.0 14.9 L61.0 65.1 L59.3 64.6 Z" fill="rgb(189, 191, 118)"/><path d="M61.0 14.9 L62.6 14.4 L62.6 65.6 L61.0 65.1 Z" fill="rgb(196, 192, 115)"/><path d="M62.6 14.4 L64.2 14.0 L64.2 66.0 L62.6 65.6 Z" fill="rgb(201, 193, 113)"/><path d="M64.2 14.0 L65.9 13.6 L65.9 66.4 L64.2 66.0 Z" fill="rgb(207, 194, 110)"/><path d="M65.9 13.6 L67.5 13.3 L67.5 66.7 L65.9 66.4 Z" fill="rgb(211, 194, 108)"/><path d="M67.5 13.3 L69.2 13.1 L69.2 66.9 L67.5 66.7 Z" fill="rgb(215, 195, 107)"/><path d="M69.2 13.1 L70.8 13.0 L70.8 67.0 L69.2 66.9 Z" fill="rgb(217, 195, 106)"/><path d="M70.8 13.0 L72.5 13.0 L72.5 67.0 L70.8 67.0 Z" fill="rgb(217, 194, 105)"/><path d="M72.5 13.0 L74.1 13.0 L74.1 67.0 L72.5 67.0 Z" fill="rgb(217, 194, 105)"/><path d="M74.1 13.0 L75.8 13.1 L75.8 66.9 L74.1 67.0 Z" fill="rgb(217, 193, 104)"/><path d="M75.8 13.1 L77.4 13.2 L77.4 66.8 L75.8 66.9 Z" fill="rgb(217, 191, 103)"/><path d="M77.4 13.2 L79.0 13.2 L79.0 66.8 L77.4 66.8 Z" fill="rgb(218, 189, 102)"/><path d="M79.0 13.2 L80.7 13.3 L80.7 66.7 L79.0 66.8 Z" fill="rgb(218, 186, 100)"/><path d="M80.7 13.3 L82.3 13.4 L82.3 66.6 L80.7 66.7 Z" fill="rgb(218, 183, 98)"/><path d="M82.3 13.4 L84.0 13.5 L84.0 66.5 L82.3 66.6 Z" fill="rgb(219, 179, 96)"/><path d="M84.0 13.5 L85.6 13.6 L85.6 66.4 L84.0 66.5 Z" fill="rgb(219, 176, 93)"/><path d="M85.6 13.6 L87.3 13.7 L87.3 66.3 L85.6 66.4 Z" fill="rgb(219, 172, 91)"/><path d="M87.3 13.7 L88.9 13.8 L88.9 66.2 L87.3 66.3 Z" fill="rgb(220, 169, 89)"/><path d="M88.9 13.8 L90.5 13.9 L90.5 66.1 L88.9 66.2 Z" fill="rgb(220, 166, 87)"/><path d="M90.5 13.9 L92.2 13.9 L92.2 66.1 L90.5 66.1 Z" fill="rgb(220, 163, 85)"/><path d="M92.2 13.9 L93.8 14.0 L93.8 66.0 L92.2 66.1 Z" fill="rgb(220, 161, 83)"/><path d="M93.8 14.0 L95.5 14.0 L95.5 66.0 L93.8 66.0 Z" fill="rgb(220, 159, 82)"/><path d="M95.5 14.0 L97.1 14.0 L97.1 66.0 L95.5 66.0 Z" fill="rgb(221, 158, 82)"/><path d="M97.1 14.0 L98.8 14.0 L98.8 66.0 L97.1 66.0 Z" fill="rgb(221, 158, 82)"/><path d="M98.8 14.0 L100.4 14.1 L100.4 65.9 L98.8 66.0 Z" fill="rgb(221, 157, 81)"/><path d="M100.4 14.1 L102.1 14.2 L102.1 65.8 L100.4 65.9 Z" fill="rgb(221, 156, 80)"/><path d="M102.1 14.2 L103.7 14.3 L103.7 65.7 L102.1 65.8 Z" fill="rgb(221, 154, 79)"/><path d="M103.7 14.3 L105.3 14.4 L105.3 65.6 L103.7 65.7 Z" fill="rgb(221, 151, 77)"/><path d="M105.3 14.4 L107.0 14.6 L107.0 65.4 L105.3 65.6 Z" fill="rgb(222, 148, 75)"/><path d="M107.0 14.6 L108.6 14.7 L108.6 65.3 L107.0 65.4 Z" fill="rgb(222, 145, 73)"/><path d="M108.6 14.7 L110.3 14.9 L110.3 65.1 L108.6 65.3 Z" fill="rgb(222, 141, 71)"/><path d="M110.3 14.9 L111.9 15.0 L111.9 65.0 L110.3 65.1 Z" fill="rgb(222, 138, 69)"/><path d="M111.9 15.0 L113.6 15.1 L113.6 64.9 L111.9 65.0 Z" fill="rgb(223, 135, 66)"/><path d="M113.6 15.1 L115.2 15.2 L115.2 64.8 L113.6 64.9 Z" fill="rgb(223, 132, 64)"/><path d="M115.2 15.2 L116.8 15.3 L116.8 64.7 L115.2 64.8 Z" fill="rgb(223, 129, 63)"/><path d="M116.8 15.3 L118.5 15.4 L118.5 64.6 L116.8 64.7 Z" fill="rgb(224, 127, 61)"/><path d="M118.5 15.4 L120.1 15.4 L120.1 64.6 L118.5 64.6 Z" fill="rgb(224, 125, 60)"/><path d="M120.1 15.4 L121.8 15.4 L121.8 64.6 L120.1 64.6 Z" fill="rgb(224, 124, 59)"/><path d="M121.8 15.4 L123.4 15.6 L123.4 64.4 L121.8 64.6 Z" fill="rgb(224, 124, 59)"/><path d="M123.4 15.6 L125.1 15.8 L125.1 64.2 L123.4 64.4 Z" fill="rgb(224, 123, 59)"/><path d="M125.1 15.8 L126.7 16.1 L126.7 63.9 L125.1 64.2 Z" fill="rgb(224, 122, 58)"/><path d="M126.7 16.1 L128.4 16.6 L128.4 63.4 L126.7 63.9 Z" fill="rgb(224, 121, 58)"/><path d="M128.4 16.6 L130.0 17.1 L130.0 62.9 L128.4 63.4 Z" fill="rgb(224, 120, 58)"/><path d="M130.0 17.1 L131.6 17.6 L131.6 62.4 L130.0 62.9 Z" fill="rgb(224, 118, 57)"/><path d="M131.6 17.6 L133.3 18.2 L133.3 61.8 L131.6 62.4 Z" fill="rgb(225, 116, 57)"/><path d="M133.3 18.2 L134.9 18.8 L134.9 61.2 L133.3 61.8 Z" fill="rgb(225, 115, 56)"/><path d="M134.9 18.8 L136.6 19.4 L136.6 60.6 L134.9 61.2 Z" fill="rgb(225, 113, 56)"/><path d="M136.6 19.4 L138.2 19.9 L138.2 60.1 L136.6 60.6 Z" fill="rgb(225, 111, 56)"/><path d="M138.2 19.9 L139.9 20.4 L139.9 59.6 L138.2 60.1 Z" fill="rgb(225, 109, 55)"/><path d="M139.9 20.4 L141.5 20.8 L141.5 59.2 L139.9 59.6 Z" fill="rgb(225, 108, 55)"/><path d="M141.5 20.8 L143.2 21.1 L143.2 58.9 L141.5 59.2 Z" fill="rgb(226, 106, 55)"/><path d="M143.2 21.1 L144.8 21.3 L144.8 58.7 L143.2 58.9 Z" fill="rgb(226, 105, 55)"/><path d="M144.8 21.3 L146.4 21.4 L146.4 58.6 L144.8 58.7 Z" fill="rgb(226, 105, 54)"/><path d="M146.4 21.4 L148.1 21.4 L148.1 58.6 L146.4 58.6 Z" fill="rgb(226, 104, 54)"/><path d="M148.1 21.4 L149.7 21.4 L149.7 58.6 L148.1 58.6 Z" fill="rgb(226, 104, 54)"/><path d="M149.7 21.4 L151.4 21.4 L151.4 58.6 L149.7 58.6 Z" fill="rgb(226, 104, 54)"/><path d="M151.4 21.4 L153.0 21.4 L153.0 58.6 L151.4 58.6 Z" fill="rgb(226, 104, 54)"/><path d="M153.0 21.4 L154.7 21.4 L154.7 58.6 L153.0 58.6 Z" fill="rgb(226, 103, 54)"/><path d="M154.7 21.4 L156.3 21.4 L156.3 58.6 L154.7 58.6 Z" fill="rgb(226, 102, 54)"/><path d="M156.3 21.4 L157.9 21.4 L157.9 58.6 L156.3 58.6 Z" fill="rgb(226, 102, 54)"/><path d="M157.9 21.4 L159.6 21.5 L159.6 58.5 L157.9 58.6 Z" fill="rgb(226, 101, 54)"/><path d="M159.6 21.5 L161.2 21.5 L161.2 58.5 L159.6 58.5 Z" fill="rgb(226, 100, 53)"/><path d="M161.2 21.5 L162.9 21.5 L162.9 58.5 L161.2 58.5 Z" fill="rgb(226, 99, 53)"/><path d="M162.9 21.5 L164.5 21.5 L164.5 58.5 L162.9 58.5 Z" fill="rgb(226, 99, 53)"/><path d="M164.5 21.5 L166.2 21.5 L166.2 58.5 L164.5 58.5 Z" fill="rgb(226, 98, 53)"/><path d="M166.2 21.5 L167.8 21.5 L167.8 58.5 L166.2 58.5 Z" fill="rgb(227, 97, 53)"/><path d="M167.8 21.5 L169.5 21.5 L169.5 58.5 L167.8 58.5 Z" fill="rgb(227, 97, 53)"/><path d="M169.5 21.5 L171.1 21.5 L171.1 58.5 L169.5 58.5 Z" fill="rgb(227, 97, 53)"/><path d="M171.1 21.5 L172.7 21.5 L172.7 58.5 L171.1 58.5 Z" fill="rgb(227, 96, 53)"/><path d="M172.7 21.5 L174.4 21.6 L174.4 58.4 L172.7 58.5 Z" fill="rgb(227, 96, 53)"/><path d="M174.4 21.6 L176.0 21.8 L176.0 58.2 L174.4 58.4 Z" fill="rgb(227, 96, 53)"/><path d="M176.0 21.8 L177.7 22.0 L177.7 58.0 L176.0 58.2 Z" fill="rgb(227, 97, 53)"/><path d="M177.7 22.0 L179.3 22.2 L179.3 57.8 L177.7 58.0 Z" fill="rgb(227, 97, 53)"/><path d="M179.3 22.2 L181.0 22.5 L181.0 57.5 L179.3 57.8 Z" fill="rgb(227, 97, 53)"/><path d="M181.0 22.5 L182.6 22.8 L182.6 57.2 L181.0 57.5 Z" fill="rgb(227, 97, 53)"/><path d="M182.6 22.8 L184.2 23.1 L184.2 56.9 L182.6 57.2 Z" fill="rgb(227, 97, 53)"/><path d="M184.2 23.1 L185.9 23.4 L185.9 56.6 L184.2 56.9 Z" fill="rgb(227, 97, 53)"/><path d="M185.9 23.4 L187.5 23.7 L187.5 56.3 L185.9 56.6 Z" fill="rgb(227, 98, 53)"/><path d="M187.5 23.7 L189.2 24.0 L189.2 56.0 L187.5 56.3 Z" fill="rgb(227, 98, 53)"/><path d="M189.2 24.0 L190.8 24.3 L190.8 55.7 L189.2 56.0 Z" fill="rgb(226, 98, 53)"/><path d="M190.8 24.3 L192.5 24.5 L192.5 55.5 L190.8 55.7 Z" fill="rgb(226, 98, 53)"/><path d="M192.5 24.5 L194.1 24.6 L194.1 55.4 L192.5 55.5 Z" fill="rgb(226, 98, 53)"/><path d="M194.1 24.6 L195.8 24.7 L195.8 55.3 L194.1 55.4 Z" fill="rgb(226, 98, 53)"/><path d="M195.8 24.7 L197.4 24.7 L197.4 55.3 L195.8 55.3 Z" fill="rgb(226, 98, 53)"/><path d="M197.4 24.7 L199.0 24.7 L199.0 55.3 L197.4 55.3 Z" fill="rgb(226, 98, 53)"/><path d="M199.0 24.7 L200.7 24.7 L200.7 55.3 L199.0 55.3 Z" fill="rgb(226, 99, 53)"/><path d="M200.7 24.7 L202.3 24.7 L202.3 55.3 L200.7 55.3 Z" fill="rgb(226, 99, 53)"/><path d="M202.3 24.7 L204.0 24.7 L204.0 55.3 L202.3 55.3 Z" fill="rgb(226, 100, 53)"/><path d="M204.0 24.7 L205.6 24.7 L205.6 55.3 L204.0 55.3 Z" fill="rgb(226, 101, 54)"/><path d="M205.6 24.7 L207.3 24.6 L207.3 55.4 L205.6 55.3 Z" fill="rgb(226, 102, 54)"/><path d="M207.3 24.6 L208.9 24.6 L208.9 55.4 L207.3 55.4 Z" fill="rgb(226, 104, 54)"/><path d="M208.9 24.6 L210.5 24.6 L210.5 55.4 L208.9 55.4 Z" fill="rgb(226, 105, 55)"/><path d="M210.5 24.6 L212.2 24.6 L212.2 55.4 L210.5 55.4 Z" fill="rgb(226, 107, 55)"/><path d="M212.2 24.6 L213.8 24.5 L213.8 55.5 L212.2 55.4 Z" fill="rgb(225, 108, 55)"/><path d="M213.8 24.5 L215.5 24.5 L215.5 55.5 L213.8 55.5 Z" fill="rgb(225, 109, 55)"/><path d="M215.5 24.5 L217.1 24.5 L217.1 55.5 L215.5 55.5 Z" fill="rgb(225, 111, 56)"/><path d="M217.1 24.5 L218.8 24.5 L218.8 55.5 L217.1 55.5 Z" fill="rgb(225, 112, 56)"/><path d="M218.8 24.5 L220.4 24.5 L220.4 55.5 L218.8 55.5 Z" fill="rgb(225, 113, 56)"/><path d="M220.4 24.5 L222.1 24.5 L222.1 55.5 L220.4 55.5 Z" fill="rgb(225, 113, 56)"/><path d="M222.1 24.5 L223.7 24.4 L223.7 55.6 L222.1 55.5 Z" fill="rgb(225, 113, 56)"/><path d="M223.7 24.4 L225.3 24.2 L225.3 55.8 L223.7 55.6 Z" fill="rgb(225, 114, 56)"/><path d="M225.3 24.2 L227.0 23.9 L227.0 56.1 L225.3 55.8 Z" fill="rgb(225, 114, 56)"/><path d="M227.0 23.9 L228.6 23.4 L228.6 56.6 L227.0 56.1 Z" fill="rgb(225, 116, 57)"/><path d="M228.6 23.4 L230.3 22.9 L230.3 57.1 L228.6 56.6 Z" fill="rgb(224, 118, 57)"/><path d="M230.3 22.9 L231.9 22.4 L231.9 57.6 L230.3 57.1 Z" fill="rgb(224, 120, 58)"/><path d="M231.9 22.4 L233.6 21.8 L233.6 58.2 L231.9 57.6 Z" fill="rgb(224, 122, 58)"/><path d="M233.6 21.8 L235.2 21.2 L235.2 58.8 L233.6 58.2 Z" fill="rgb(224, 126, 61)"/><path d="M235.2 21.2 L236.8 20.6 L236.8 59.4 L235.2 58.8 Z" fill="rgb(223, 131, 64)"/><path d="M236.8 20.6 L238.5 20.0 L238.5 60.0 L236.8 59.4 Z" fill="rgb(223, 135, 66)"/><path d="M238.5 20.0 L240.1 19.5 L240.1 60.5 L238.5 60.0 Z" fill="rgb(222, 139, 69)"/><path d="M240.1 19.5 L241.8 19.0 L241.8 61.0 L240.1 60.5 Z" fill="rgb(222, 142, 71)"/><path d="M241.8 19.0 L243.4 18.7 L243.4 61.3 L241.8 61.0 Z" fill="rgb(222, 145, 73)"/><path d="M243.4 18.7 L245.1 18.4 L245.1 61.6 L243.4 61.3 Z" fill="rgb(222, 148, 75)"/><path d="M245.1 18.4 L246.7 18.3 L246.7 61.7 L245.1 61.6 Z" fill="rgb(221, 149, 76)"/><path d="M246.7 18.3 L248.4 18.3 L248.4 61.7 L246.7 61.7 Z" fill="rgb(221, 150, 76)"/><path d="M248.4 18.3 L250.0 18.3 L250.0 61.7 L248.4 61.7 Z" fill="rgb(221, 150, 77)"/><path d="M250.0 18.3 L251.6 18.4 L251.6 61.6 L250.0 61.7 Z" fill="rgb(221, 152, 78)"/><path d="M251.6 18.4 L253.3 18.4 L253.3 61.6 L251.6 61.6 Z" fill="rgb(221, 154, 79)"/><path d="M253.3 18.4 L254.9 18.4 L254.9 61.6 L253.3 61.6 Z" fill="rgb(221, 157, 81)"/><path d="M254.9 18.4 L256.6 18.5 L256.6 61.5 L254.9 61.6 Z" fill="rgb(220, 161, 83)"/><path d="M256.6 18.5 L258.2 18.5 L258.2 61.5 L256.6 61.5 Z" fill="rgb(220, 165, 86)"/><path d="M258.2 18.5 L259.9 18.6 L259.9 61.4 L258.2 61.5 Z" fill="rgb(219, 169, 89)"/><path d="M259.9 18.6 L261.5 18.6 L261.5 61.4 L259.9 61.4 Z" fill="rgb(219, 174, 92)"/><path d="M261.5 18.6 L263.2 18.7 L263.2 61.3 L261.5 61.4 Z" fill="rgb(219, 178, 95)"/><path d="M263.2 18.7 L264.8 18.7 L264.8 61.3 L263.2 61.3 Z" fill="rgb(218, 182, 98)"/><path d="M264.8 18.7 L266.4 18.7 L266.4 61.3 L264.8 61.3 Z" fill="rgb(218, 186, 100)"/><path d="M266.4 18.7 L268.1 18.8 L268.1 61.2 L266.4 61.3 Z" fill="rgb(217, 190, 103)"/><path d="M268.1 18.8 L269.7 18.8 L269.7 61.2 L268.1 61.2 Z" fill="rgb(217, 193, 104)"/><path d="M269.7 18.8 L271.4 18.8 L271.4 61.2 L269.7 61.2 Z" fill="rgb(217, 195, 106)"/><path d="M271.4 18.8 L273.0 18.8 L273.0 61.2 L271.4 61.2 Z" fill="rgb(215, 195, 107)"/><path d="M273.0 18.8 L274.7 18.6 L274.7 61.4 L273.0 61.2 Z" fill="rgb(215, 195, 107)"/><path d="M274.7 18.6 L276.3 18.4 L276.3 61.6 L274.7 61.4 Z" fill="rgb(213, 194, 108)"/><path d="M276.3 18.4 L277.9 18.0 L277.9 62.0 L276.3 61.6 Z" fill="rgb(211, 194, 109)"/><path d="M277.9 18.0 L279.6 17.6 L279.6 62.4 L277.9 62.0 Z" fill="rgb(207, 194, 110)"/><path d="M279.6 17.6 L281.2 17.1 L281.2 62.9 L279.6 62.4 Z" fill="rgb(202, 193, 112)"/><path d="M281.2 17.1 L282.9 16.6 L282.9 63.4 L281.2 62.9 Z" fill="rgb(197, 192, 115)"/><path d="M282.9 16.6 L284.5 16.0 L284.5 64.0 L282.9 63.4 Z" fill="rgb(191, 191, 117)"/><path d="M284.5 16.0 L286.2 15.4 L286.2 64.6 L284.5 64.0 Z" fill="rgb(185, 190, 120)"/><path d="M286.2 15.4 L287.8 14.9 L287.8 65.1 L286.2 64.6 Z" fill="rgb(179, 189, 123)"/><path d="M287.8 14.9 L289.5 14.4 L289.5 65.6 L287.8 65.1 Z" fill="rgb(173, 189, 125)"/><path d="M289.5 14.4 L291.1 13.9 L291.1 66.1 L289.5 65.6 Z" fill="rgb(167, 188, 127)"/><path d="M291.1 13.9 L292.7 13.5 L292.7 66.5 L291.1 66.1 Z" fill="rgb(162, 187, 130)"/><path d="M292.7 13.5 L294.4 13.3 L294.4 66.7 L292.7 66.5 Z" fill="rgb(158, 186, 131)"/><path d="M294.4 13.3 L296.0 13.1 L296.0 66.9 L294.4 66.7 Z" fill="rgb(155, 186, 133)"/><path d="M296.0 13.1 L297.7 13.1 L297.7 66.9 L296.0 66.9 Z" fill="rgb(153, 186, 133)"/><path d="M297.7 13.1 L299.3 13.2 L299.3 66.8 L297.7 66.9 Z" fill="rgb(153, 186, 134)"/><path d="M299.3 13.2 L301.0 13.4 L301.0 66.6 L299.3 66.8 Z" fill="rgb(152, 186, 134)"/><path d="M301.0 13.4 L302.6 13.8 L302.6 66.2 L301.0 66.6 Z" fill="rgb(151, 185, 134)"/><path d="M302.6 13.8 L304.2 14.2 L304.2 65.8 L302.6 66.2 Z" fill="rgb(150, 185, 135)"/><path d="M304.2 14.2 L305.9 14.8 L305.9 65.2 L304.2 65.8 Z" fill="rgb(148, 185, 136)"/><path d="M305.9 14.8 L307.5 15.3 L307.5 64.7 L305.9 65.2 Z" fill="rgb(147, 185, 136)"/><path d="M307.5 15.3 L309.2 15.9 L309.2 64.1 L307.5 64.7 Z" fill="rgb(144, 184, 137)"/><path d="M309.2 15.9 L310.0 15.9 L310.0 64.1 L309.2 64.1 Z" fill="rgb(142, 184, 138)"/>
  <path d="M10.0 16.2 L11.6 16.9 L13.3 17.4 L14.9 18.0 L16.6 18.5 L18.2 18.9 L19.9 19.2 L21.5 19.4 L23.2 19.4 L24.8 19.4 L26.4 19.3 L28.1 19.3 L29.7 19.1 L31.4 19.0 L33.0 18.9 L34.7 18.7 L36.3 18.6 L37.9 18.4 L39.6 18.3 L41.2 18.2 L42.9 18.1 L44.5 18.0 L46.2 18.0 L47.8 18.0 L49.5 17.9 L51.1 17.6 L52.7 17.3 L54.4 16.9 L56.0 16.4 L57.7 15.9 L59.3 15.4 L61.0 14.9 L62.6 14.4 L64.2 14.0 L65.9 13.6 L67.5 13.3 L69.2 13.1 L70.8 13.0 L72.5 13.0 L74.1 13.0 L75.8 13.1 L77.4 13.2 L79.0 13.2 L80.7 13.3 L82.3 13.4 L84.0 13.5 L85.6 13.6 L87.3 13.7 L88.9 13.8 L90.5 13.9 L92.2 13.9 L93.8 14.0 L95.5 14.0 L97.1 14.0 L98.8 14.0 L100.4 14.1 L102.1 14.2 L103.7 14.3 L105.3 14.4 L107.0 14.6 L108.6 14.7 L110.3 14.9 L111.9 15.0 L113.6 15.1 L115.2 15.2 L116.8 15.3 L118.5 15.4 L120.1 15.4 L121.8 15.4 L123.4 15.6 L125.1 15.8 L126.7 16.1 L128.4 16.6 L130.0 17.1 L131.6 17.6 L133.3 18.2 L134.9 18.8 L136.6 19.4 L138.2 19.9 L139.9 20.4 L141.5 20.8 L143.2 21.1 L144.8 21.3 L146.4 21.4 L148.1 21.4 L149.7 21.4 L151.4 21.4 L153.0 21.4 L154.7 21.4 L156.3 21.4 L157.9 21.4 L159.6 21.5 L161.2 21.5 L162.9 21.5 L164.5 21.5 L166.2 21.5 L167.8 21.5 L169.5 21.5 L171.1 21.5 L172.7 21.5 L174.4 21.6 L176.0 21.8 L177.7 22.0 L179.3 22.2 L181.0 22.5 L182.6 22.8 L184.2 23.1 L185.9 23.4 L187.5 23.7 L189.2 24.0 L190.8 24.3 L192.5 24.5 L194.1 24.6 L195.8 24.7 L197.4 24.7 L199.0 24.7 L200.7 24.7 L202.3 24.7 L204.0 24.7 L205.6 24.7 L207.3 24.6 L208.9 24.6 L210.5 24.6 L212.2 24.6 L213.8 24.5 L215.5 24.5 L217.1 24.5 L218.8 24.5 L220.4 24.5 L222.1 24.5 L223.7 24.4 L225.3 24.2 L227.0 23.9 L228.6 23.4 L230.3 22.9 L231.9 22.4 L233.6 21.8 L235.2 21.2 L236.8 20.6 L238.5 20.0 L240.1 19.5 L241.8 19.0 L243.4 18.7 L245.1 18.4 L246.7 18.3 L248.4 18.3 L250.0 18.3 L251.6 18.4 L253.3 18.4 L254.9 18.4 L256.6 18.5 L258.2 18.5 L259.9 18.6 L261.5 18.6 L263.2 18.7 L264.8 18.7 L266.4 18.7 L268.1 18.8 L269.7 18.8 L271.4 18.8 L273.0 18.8 L274.7 18.6 L276.3 18.4 L277.9 18.0 L279.6 17.6 L281.2 17.1 L282.9 16.6 L284.5 16.0 L286.2 15.4 L287.8 14.9 L289.5 14.4 L291.1 13.9 L292.7 13.5 L294.4 13.3 L296.0 13.1 L297.7 13.1 L299.3 13.2 L301.0 13.4 L302.6 13.8 L304.2 14.2 L305.9 14.8 L307.5 15.3 L309.2 15.9 L309.2 64.1 L307.5 64.7 L305.9 65.2 L304.2 65.8 L302.6 66.2 L301.0 66.6 L299.3 66.8 L297.7 66.9 L296.0 66.9 L294.4 66.7 L292.7 66.5 L291.1 66.1 L289.5 65.6 L287.8 65.1 L286.2 64.6 L284.5 64.0 L282.9 63.4 L281.2 62.9 L279.6 62.4 L277.9 62.0 L276.3 61.6 L274.7 61.4 L273.0 61.2 L271.4 61.2 L269.7 61.2 L268.1 61.2 L266.4 61.3 L264.8 61.3 L263.2 61.3 L261.5 61.4 L259.9 61.4 L258.2 61.5 L256.6 61.5 L254.9 61.6 L253.3 61.6 L251.6 61.6 L250.0 61.7 L248.4 61.7 L246.7 61.7 L245.1 61.6 L243.4 61.3 L241.8 61.0 L240.1 60.5 L238.5 60.0 L236.8 59.4 L235.2 58.8 L233.6 58.2 L231.9 57.6 L230.3 57.1 L228.6 56.6 L227.0 56.1 L225.3 55.8 L223.7 55.6 L222.1 55.5 L220.4 55.5 L218.8 55.5 L217.1 55.5 L215.5 55.5 L213.8 55.5 L212.2 55.4 L210.5 55.4 L208.9 55.4 L207.3 55.4 L205.6 55.3 L204.0 55.3 L202.3 55.3 L200.7 55.3 L199.0 55.3 L197.4 55.3 L195.8 55.3 L194.1 55.4 L192.5 55.5 L190.8 55.7 L189.2 56.0 L187.5 56.3 L185.9 56.6 L184.2 56.9 L182.6 57.2 L181.0 57.5 L179.3 57.8 L177.7 58.0 L176.0 58.2 L174.4 58.4 L172.7 58.5 L171.1 58.5 L169.5 58.5 L167.8 58.5 L166.2 58.5 L164.5 58.5 L162.9 58.5 L161.2 58.5 L159.6 58.5 L157.9 58.6 L156.3 58.6 L154.7 58.6 L153.0 58.6 L151.4 58.6 L149.7 58.6 L148.1 58.6 L146.4 58.6 L144.8 58.7 L143.2 58.9 L141.5 59.2 L139.9 59.6 L138.2 60.1 L136.6 60.6 L134.9 61.2 L133.3 61.8 L131.6 62.4 L130.0 62.9 L128.4 63.4 L126.7 63.9 L125.1 64.2 L123.4 64.4 L121.8 64.6 L120.1 64.6 L118.5 64.6 L116.8 64.7 L115.2 64.8 L113.6 64.9 L111.9 65.0 L110.3 65.1 L108.6 65.3 L107.0 65.4 L105.3 65.6 L103.7 65.7 L102.1 65.8 L100.4 65.9 L98.8 66.0 L97.1 66.0 L95.5 66.0 L93.8 66.0 L92.2 66.1 L90.5 66.1 L88.9 66.2 L87.3 66.3 L85.6 66.4 L84.0 66.5 L82.3 66.6 L80.7 66.7 L79.0 66.8 L77.4 66.8 L75.8 66.9 L74.1 67.0 L72.5 67.0 L70.8 67.0 L69.2 66.9 L67.5 66.7 L65.9 66.4 L64.2 66.0 L62.6 65.6 L61.0 65.1 L59.3 64.6 L57.7 64.1 L56.0 63.6 L54.4 63.1 L52.7 62.7 L51.1 62.4 L49.5 62.1 L47.8 62.0 L46.2 62.0 L44.5 62.0 L42.9 61.9 L41.2 61.8 L39.6 61.7 L37.9 61.6 L36.3 61.4 L34.7 61.3 L33.0 61.1 L31.4 61.0 L29.7 60.9 L28.1 60.7 L26.4 60.7 L24.8 60.6 L23.2 60.6 L21.5 60.6 L19.9 60.8 L18.2 61.1 L16.6 61.5 L14.9 62.0 L13.3 62.6 L11.6 63.1 L10.0 63.8 Z" fill="none" stroke="#1a1a1a" stroke-opacity="0.22" stroke-width="0.8" stroke-linejoin="round"/>
</svg>
