<?xml version="1.0" encoding="UTF-8"?>
<svg xmlns="http://www.w3.org/2000/svg" viewBox="0 0 320 80" role="img">
  <title>Oklahoma City seasonal climate ribbon</title>
  <path d="M10.0 31.7 L12.1 31.9 L12.1 48.1 L10.0 48.3 Z" fill="rgb(112, 180, 151)"/><path d="M11.6 31.9 L13.8 32.2 L13.8 47.8 L11.6 48.1 Z" fill="rgb(111, 179, 152)"/><path d="M13.3 32.2 L15.4 32.4 L15.4 47.6 L13.3 47.8 Z" fill="rgb(109, 179, 152)"/><path d="M14.9 32.4 L17.1 32.6 L17.1 47.4 L14.9 47.6 Z" fill="rgb(108, 179, 153)"/><path d="M16.6 32.6 L18.7 32.8 L18.7 47.2 L16.6 47.4 Z" fill="rgb(107, 179, 153)"/><path d="M18.2 32.8 L20.4 32.9 L20.4 47.1 L18.2 47.2 Z" fill="rgb(106, 179, 154)"/><path d="M19.9 32.9 L22.0 33.0 L22.0 47.0 L19.9 47.1 Z" fill="rgb(105, 179, 154)"/><path d="M21.5 33.0 L23.7 33.0 L23.7 47.0 L21.5 47.0 Z" fill="rgb(105, 179, 154)"/><path d="M23.2 33.0 L25.3 33.0 L25.3 47.0 L23.2 47.0 Z" fill="rgb(105, 179, 154)"/><path d="M24.8 33.0 L26.9 33.0 L26.9 47.0 L24.8 47.0 Z" fill="rgb(106, 179, 154)"/><path d="M26.4 33.0 L28.6 32.9 L28.6 47.1 L26.4 47.0 Z" fill="rgb(107, 179, 153)"/><path d="M28.1 32.9 L30.2 32.8 L30.2 47.2 L28.1 47.1 Z" fill="rgb(109, 179, 152)"/><path d="M29.7 32.8 L31.9 32.7 L31.9 47.3 L29.7 47.2 Z" fill="rgb(112, 180, 151)"/><path d="M31.4 32.7 L33.5 32.6 L33.5 47.4 L31.4 47.3 Z" fill="rgb(115, 180, 150)"/><path d="M33.0 32.6 L35.2 32.5 L35.2 47.5 L33.0 47.4 Z" fill="rgb(118, 181, 149)"/><path d="M34.7 32.5 L36.8 32.4 L36.8 47.6 L34.7 47.5 Z" fill="rgb(121, 181, 147)"/><path d="M36.3 32.4 L38.4 32.3 L38.4 47.7 L36.3 47.6 Z" fill="rgb(125, 182, 146)"/><path d="M37.9 32.3 L40.1 32.2 L40.1 47.8 L37.9 47.7 Z" fill="rgb(128, 182, 144)"/><path d="M39.6 32.2 L41.7 32.1 L41.7 47.9 L39.6 47.8 Z" fill="rgb(131, 182, 143)"/><path d="M41.2 32.1 L43.4 32.1 L43.4 47.9 L41.2 47.9 Z" fill="rgb(134, 183, 142)"/><path d="M42.9 32.1 L45.0 32.0 L45.0 48.0 L42.9 47.9 Z" fill="rgb(136, 183, 141)"/><path d="M44.5 32.0 L46.7 32.0 L46.7 48.0 L44.5 48.0 Z" fill="rgb(138, 183, 140)"/><path d="M46.2 32.0 L48.3 32.0 L48.3 48.0 L46.2 48.0 Z" fill="rgb(139, 184, 140)"/><path d="M47.8 32.0 L50.0 31.8 L50.0 48.2 L47.8 48.0 Z" fill="rgb(139, 184, 140)"/><path d="M49.5 31.8 L51.6 31.6 L51.6 48.4 L49.5 48.2 Z" fill="rgb(141, 184, 139)"/><path d="M51.1 31.6 L53.2 31.2 L53.2 48.8 L51.1 48.4 Z" fill="rgb(144, 184, 137)"/><path d="M52.7 31.2 L54.9 30.7 L54.9 49.3 L52.7 48.8 Z" fill="rgb(149, 185, 136)"/><path d="M54.4 30.7 L56.5 30.2 L56.5 49.8 L54.4 49.3 Z" fill="rgb(154, 186, 133)"/><path d="M56.0 30.2 L58.2 29.6 L58.2 50.4 L56.0 49.8 Z" fill="rgb(160, 187, 130)"/><path d="M57.7 29.6 L59.8 29.0 L59.8 51.0 L57.7 50.4 Z" fill="rgb(167, 188, 127)"/><path d="M59.3 29.0 L61.5 28.4 L61.5 51.6 L59.3 51.0 Z" fill="rgb(174, 189, 124)"/><path d="M61.0 28.4 L63.1 27.8 L63.1 52.2 L61.0 51.6 Z" fill="rgb(181, 190, 121)"/><path d="M62.6 27.8 L64.7 27.3 L64.7 52.7 L62.6 52.2 Z" fill="rgb(188, 191, 118)"/><path d="M64.2 27.3 L66.4 26.9 L66.4 53.1 L64.2 52.7 Z" fill="rgb(194, 192, 116)"/><path d="M65.9 26.9 L68.0 26.5 L68.0 53.5 L65.9 53.1 Z" fill="rgb(200, 192, 114)"/><path d="M67.5 26.5 L69.7 26.3 L69.7 53.7 L67.5 53.5 Z" fill="rgb(204, 193, 112)"/><path d="M69.2 26.3 L71.3 26.2 L71.3 53.8 L69.2 53.7 Z" fill="rgb(207, 194, 110)"/><path d="M70.8 26.2 L73.0 26.1 L73.0 53.9 L70.8 53.8 Z" fill="rgb(208, 194, 110)"/><path d="M72.5 26.1 L74.6 25.9 L74.6 54.1 L72.5 53.9 Z" fill="rgb(209, 194, 110)"/><path d="M74.1 25.9 L76.3 25.7 L76.3 54.3 L74.1 54.1 Z" fill="rgb(211, 194, 109)"/><path d="M75.8 25.7 L77.9 25.3 L77.9 54.7 L75.8 54.3 Z" fill="rgb(214, 195, 107)"/><path d="M77.4 25.3 L79.5 24.8 L79.5 55.2 L77.4 54.7 Z" fill="rgb(217, 194, 106)"/><path d="M79.0 24.8 L81.2 24.3 L81.2 55.7 L79.0 55.2 Z" fill="rgb(217, 192, 104)"/><path d="M80.7 24.3 L82.8 23.7 L82.8 56.3 L80.7 55.7 Z" fill="rgb(218, 189, 102)"/><path d="M82.3 23.7 L84.5 23.2 L84.5 56.8 L82.3 56.3 Z" fill="rgb(218, 185, 100)"/><path d="M84.0 23.2 L86.1 22.6 L86.1 57.4 L84.0 56.8 Z" fill="rgb(218, 182, 97)"/><path d="M85.6 22.6 L87.8 22.1 L87.8 57.9 L85.6 57.4 Z" fill="rgb(219, 179, 95)"/><path d="M87.3 22.1 L89.4 21.6 L89.4 58.4 L87.3 57.9 Z" fill="rgb(219, 175, 93)"/><path d="M88.9 21.6 L91.0 21.1 L91.0 58.9 L88.9 58.4 Z" fill="rgb(219, 172, 91)"/><path d="M90.5 21.1 L92.7 20.8 L92.7 59.2 L90.5 58.9 Z" fill="rgb(219, 170, 89)"/><path d="M92.2 20.8 L94.3 20.5 L94.3 59.5 L92.2 59.2 Z" fill="rgb(220, 168, 88)"/><path d="M93.8 20.5 L96.0 20.4 L96.0 59.6 L93.8 59.5 Z" fill="rgb(220, 166, 87)"/><path d="M95.5 20.4 L97.6 20.3 L97.6 59.7 L95.5 59.6 Z" fill="rgb(220, 165, 86)"/><path d="M97.1 20.3 L99.3 20.2 L99.3 59.8 L97.1 59.7 Z" fill="rgb(220, 165, 86)"/><path d="M98.8 20.2 L100.9 19.8 L100.9 60.2 L98.8 59.8 Z" fill="rgb(220, 164, 86)"/><path d="M100.4 19.8 L102.6 19.4 L102.6 60.6 L100.4 60.2 Z" fill="rgb(220, 163, 85)"/><path d="M102.1 19.4 L104.2 18.8 L104.2 61.2 L102.1 60.6 Z" fill="rgb(220, 160, 83)"/><path d="M103.7 18.8 L105.8 18.2 L105.8 61.8 L103.7 61.2 Z" fill="rgb(221, 157, 81)"/><path d="M105.3 18.2 L107.5 17.5 L107.5 62.5 L105.3 61.8 Z" fill="rgb(221, 154, 79)"/><path d="M107.0 17.5 L109.1 16.8 L109.1 63.2 L107.0 62.5 Z" fill="rgb(221, 151, 77)"/><path d="M108.6 16.8 L110.8 16.0 L110.8 64.0 L108.6 63.2 Z" fill="rgb(222, 147, 75)"/><path d="M110.3 16.0 L112.4 15.3 L112.4 64.7 L110.3 64.0 Z" fill="rgb(222, 144, 72)"/><path d="M111.9 15.3 L114.1 14.7 L114.1 65.3 L111.9 64.7 Z" fill="rgb(222, 140, 70)"/><path d="M113.6 14.7 L115.7 14.1 L115.7 65.9 L113.6 65.3 Z" fill="rgb(223, 137, 68)"/><path d="M115.2 14.1 L117.3 13.6 L117.3 66.4 L115.2 65.9 Z" fill="rgb(223, 134, 66)"/><path d="M116.8 13.6 L119.0 13.3 L119.0 66.7 L116.8 66.4 Z" fill="rgb(223, 132, 64)"/><path d="M118.5 13.3 L120.6 13.1 L120.6 66.9 L118.5 66.7 Z" fill="rgb(223, 130, 63)"/><path d="M120.1 13.1 L122.3 13.0 L122.3 67.0 L120.1 66.9 Z" fill="rgb(223, 129, 62)"/><path d="M121.8 13.0 L123.9 13.1 L123.9 66.9 L121.8 67.0 Z" fill="rgb(223, 128, 62)"/><path d="M123.4 13.1 L125.6 13.2 L125.6 66.8 L123.4 66.9 Z" fill="rgb(223, 128, 62)"/><path d="M125.1 13.2 L127.2 13.3 L127.2 66.7 L125.1 66.8 Z" fill="rgb(224, 126, 61)"/><path d="M126.7 13.3 L128.9 13.5 L128.9 66.5 L126.7 66.7 Z" fill="rgb(224, 124, 60)"/><path d="M128.4 13.5 L130.5 13.8 L130.5 66.2 L128.4 66.5 Z" fill="rgb(224, 122, 58)"/><path d="M130.0 13.8 L132.1 14.0 L132.1 66.0 L130.0 66.2 Z" fill="rgb(224, 120, 58)"/><path d="M131.6 14.0 L133.8 14.3 L133.8 65.7 L131.6 66.0 Z" fill="rgb(224, 118, 57)"/><path d="M133.3 14.3 L135.4 14.6 L135.4 65.4 L133.3 65.7 Z" fill="rgb(225, 116, 57)"/><path d="M134.9 14.6 L137.1 14.9 L137.1 65.1 L134.9 65.4 Z" fill="rgb(225, 114, 56)"/><path d="M136.6 14.9 L138.7 15.1 L138.7 64.9 L136.6 65.1 Z" fill="rgb(225, 112, 56)"/><path d="M138.2 15.1 L140.4 15.4 L140.4 64.6 L138.2 64.9 Z" fill="rgb(225, 110, 56)"/><path d="M139.9 15.4 L142.0 15.6 L142.0 64.4 L139.9 64.6 Z" fill="rgb(225, 108, 55)"/><path d="M141.5 15.6 L143.7 15.7 L143.7 64.3 L141.5 64.4 Z" fill="rgb(226, 107, 55)"/><path d="M143.2 15.7 L145.3 15.8 L145.3 64.2 L143.2 64.3 Z" fill="rgb(226, 106, 55)"/><path d="M144.8 15.8 L146.9 15.8 L146.9 64.2 L144.8 64.2 Z" fill="rgb(226, 105, 54)"/><path d="M146.4 15.8 L148.6 15.9 L148.6 64.1 L146.4 64.2 Z" fill="rgb(226, 105, 54)"/><path d="M148.1 15.9 L150.2 16.2 L150.2 63.8 L148.1 64.1 Z" fill="rgb(226, 105, 54)"/><path d="M149.7 16.2 L151.9 16.5 L151.9 63.5 L149.7 63.8 Z" fill="rgb(226, 104, 54)"/><path d="M151.4 16.5 L153.5 17.0 L153.5 63.0 L151.4 63.5 Z" fill="rgb(226, 103, 54)"/><path d="M153.0 17.0 L155.2 17.5 L155.2 62.5 L153.0 63.0 Z" fill="rgb(226, 102, 54)"/><path d="M154.7 17.5 L156.8 18.1 L156.8 61.9 L154.7 62.5 Z" fill="rgb(226, 101, 54)"/><path d="M156.3 18.1 L158.4 18.7 L158.4 61.3 L156.3 61.9 Z" fill="rgb(226, 100, 54)"/><path d="M157.9 18.7 L160.1 19.4 L160.1 60.6 L157.9 61.3 Z" fill="rgb(226, 99, 53)"/><path d="M159.6 19.4 L161.7 20.0 L161.7 60.0 L159.6 60.6 Z" fill="rgb(227, 98, 53)"/><path d="M161.2 20.0 L163.4 20.6 L163.4 59.4 L161.2 60.0 Z" fill="rgb(227, 97, 53)"/><path d="M162.9 20.6 L165.0 21.2 L165.0 58.8 L162.9 59.4 Z" fill="rgb(227, 95, 52)"/><path d="M164.5 21.2 L166.7 21.7 L166.7 58.3 L164.5 58.8 Z" fill="rgb(227, 94, 52)"/><path d="M166.2 21.7 L168.3 22.1 L168.3 57.9 L166.2 58.3 Z" fill="rgb(227, 93, 52)"/><path d="M167.8 22.1 L170.0 22.3 L170.0 57.7 L167.8 57.9 Z" fill="rgb(227, 93, 52)"/><path d="M169.5 22.3 L171.6 22.4 L171.6 57.6 L169.5 57.7 Z" fill="rgb(227, 92, 52)"/><path d="M171.1 22.4 L173.2 22.4 L173.2 57.6 L171.1 57.6 Z" fill="rgb(227, 92, 52)"/><path d="M172.7 22.4 L174.9 22.4 L174.9 57.6 L172.7 57.6 Z" fill="rgb(227, 92, 52)"/><path d="M174.4 22.4 L176.5 22.3 L176.5 57.7 L174.4 57.6 Z" fill="rgb(227, 92, 52)"/><path d="M176.0 22.3 L178.2 22.3 L178.2 57.7 L176.0 57.7 Z" fill="rgb(227, 92, 52)"/><path d="M177.7 22.3 L179.8 22.2 L179.8 57.8 L177.7 57.7 Z" fill="rgb(227, 92, 52)"/><path d="M179.3 22.2 L181.5 22.1 L181.5 57.9 L179.3 57.8 Z" fill="rgb(227, 92, 52)"/><path d="M181.0 22.1 L183.1 22.0 L183.1 58.0 L181.0 57.9 Z" fill="rgb(227, 92, 52)"/><path d="M182.6 22.0 L184.7 21.9 L184.7 58.1 L182.6 58.0 Z" fill="rgb(227, 93, 52)"/><path d="M184.2 21.9 L186.4 21.7 L186.4 58.3 L184.2 58.1 Z" fill="rgb(227, 93, 52)"/><path d="M185.9 21.7 L188.0 21.6 L188.0 58.4 L185.9 58.3 Z" fill="rgb(227, 93, 52)"/><path d="M187.5 21.6 L189.7 21.5 L189.7 58.5 L187.5 58.4 Z" fill="rgb(227, 93, 52)"/><path d="M189.2 21.5 L191.3 21.4 L191.3 58.6 L189.2 58.5 Z" fill="rgb(227, 93, 52)"/><path d="M190.8 21.4 L193.0 21.4 L193.0 58.6 L190.8 58.6 Z" fill="rgb(227, 94, 52)"/><path d="M192.5 21.4 L194.6 21.3 L194.6 58.7 L192.5 58.6 Z" fill="rgb(227, 94, 52)"/><path d="M194.1 21.3 L196.3 21.3 L196.3 58.7 L194.1 58.7 Z" fill="rgb(227, 94, 52)"/><path d="M195.8 21.3 L197.9 21.3 L197.9 58.7 L195.8 58.7 Z" fill="rgb(227, 94, 52)"/><path d="M197.4 21.3 L199.5 21.3 L199.5 58.7 L197.4 58.7 Z" fill="rgb(227, 94, 52)"/><path d="M199.0 21.3 L201.2 21.3 L201.2 58.7 L199.0 58.7 Z" fill="rgb(227, 94, 52)"/><path d="M200.7 21.3 L202.8 21.4 L202.8 58.6 L200.7 58.7 Z" fill="rgb(227, 95, 52)"/><path d="M202.3 21.4 L204.5 21.4 L204.5 58.6 L202.3 58.6 Z" fill="rgb(227, 96, 53)"/><path d="M204.0 21.4 L206.1 21.5 L206.1 58.5 L204.0 58.6 Z" fill="rgb(226, 98, 53)"/><path d="M205.6 21.5 L207.8 21.6 L207.8 58.4 L205.6 58.5 Z" fill="rgb(226, 100, 53)"/><path d="M207.3 21.6 L209.4 21.6 L209.4 58.4 L207.3 58.4 Z" fill="rgb(226, 101, 54)"/><path d="M208.9 21.6 L211.0 21.7 L211.0 58.3 L208.9 58.4 Z" fill="rgb(226, 103, 54)"/><path d="M210.5 21.7 L212.7 21.8 L212.7 58.2 L210.5 58.3 Z" fill="rgb(226, 105, 55)"/><path d="M212.2 21.8 L214.3 21.9 L214.3 58.1 L212.2 58.2 Z" fill="rgb(226, 107, 55)"/><path d="M213.8 21.9 L216.0 21.9 L216.0 58.1 L213.8 58.1 Z" fill="rgb(225, 109, 55)"/><path d="M215.5 21.9 L217.6 22.0 L217.6 58.0 L215.5 58.1 Z" fill="rgb(225, 111, 56)"/><path d="M217.1 22.0 L219.3 22.0 L219.3 58.0 L217.1 58.0 Z" fill="rgb(225, 112, 56)"/><path d="M218.8 22.0 L220.9 22.1 L220.9 57.9 L218.8 58.0 Z" fill="rgb(225, 113, 56)"/><path d="M220.4 22.1 L222.6 22.1 L222.6 57.9 L220.4 57.9 Z" fill="rgb(225, 114, 56)"/><path d="M222.1 22.1 L224.2 22.1 L224.2 57.9 L222.1 57.9 Z" fill="rgb(225, 114, 56)"/><path d="M223.7 22.1 L225.8 22.1 L225.8 57.9 L223.7 57.9 Z" fill="rgb(225, 115, 56)"/><path d="M225.3 22.1 L227.5 22.1 L227.5 57.9 L225.3 57.9 Z" fill="rgb(225, 116, 57)"/><path d="M227.0 22.1 L229.1 22.1 L229.1 57.9 L227.0 57.9 Z" fill="rgb(224, 117, 57)"/><path d="M228.6 22.1 L230.8 22.2 L230.8 57.8 L228.6 57.9 Z" fill="rgb(224, 119, 57)"/><path d="M230.3 22.2 L232.4 22.2 L232.4 57.8 L230.3 57.8 Z" fill="rgb(224, 122, 58)"/><path d="M231.9 22.2 L234.1 22.2 L234.1 57.8 L231.9 57.8 Z" fill="rgb(224, 126, 61)"/><path d="M233.6 22.2 L235.7 22.3 L235.7 57.7 L233.6 57.8 Z" fill="rgb(223, 131, 64)"/><path d="M235.2 22.3 L237.3 22.3 L237.3 57.7 L235.2 57.7 Z" fill="rgb(223, 135, 67)"/><path d="M236.8 22.3 L239.0 22.3 L239.0 57.7 L236.8 57.7 Z" fill="rgb(222, 140, 70)"/><path d="M238.5 22.3 L240.6 22.4 L240.6 57.6 L238.5 57.7 Z" fill="rgb(222, 144, 73)"/><path d="M240.1 22.4 L242.3 22.4 L242.3 57.6 L240.1 57.6 Z" fill="rgb(221, 148, 75)"/><path d="M241.8 22.4 L243.9 22.4 L243.9 57.6 L241.8 57.6 Z" fill="rgb(221, 152, 78)"/><path d="M243.4 22.4 L245.6 22.4 L245.6 57.6 L243.4 57.6 Z" fill="rgb(221, 155, 79)"/><path d="M245.1 22.4 L247.2 22.4 L247.2 57.6 L245.1 57.6 Z" fill="rgb(221, 156, 81)"/><path d="M246.7 22.4 L248.9 22.5 L248.9 57.5 L246.7 57.6 Z" fill="rgb(221, 157, 81)"/><path d="M248.4 22.5 L250.5 22.7 L250.5 57.3 L248.4 57.5 Z" fill="rgb(221, 158, 81)"/><path d="M250.0 22.7 L252.1 23.1 L252.1 56.9 L250.0 57.3 Z" fill="rgb(220, 159, 82)"/><path d="M251.6 23.1 L253.8 23.5 L253.8 56.5 L251.6 56.9 Z" fill="rgb(220, 162, 84)"/><path d="M253.3 23.5 L255.4 24.1 L255.4 55.9 L253.3 56.5 Z" fill="rgb(220, 165, 86)"/><path d="M254.9 24.1 L257.1 24.7 L257.1 55.3 L254.9 55.9 Z" fill="rgb(220, 169, 89)"/><path d="M256.6 24.7 L258.7 25.4 L258.7 54.6 L256.6 55.3 Z" fill="rgb(219, 173, 92)"/><path d="M258.2 25.4 L260.4 26.1 L260.4 53.9 L258.2 54.6 Z" fill="rgb(219, 178, 95)"/><path d="M259.9 26.1 L262.0 26.8 L262.0 53.2 L259.9 53.9 Z" fill="rgb(218, 183, 98)"/><path d="M261.5 26.8 L263.7 27.4 L263.7 52.6 L261.5 53.2 Z" fill="rgb(218, 187, 101)"/><path d="M263.2 27.4 L265.3 28.0 L265.3 52.0 L263.2 52.6 Z" fill="rgb(217, 192, 104)"/><path d="M264.8 28.0 L266.9 28.6 L266.9 51.4 L264.8 52.0 Z" fill="rgb(214, 195, 107)"/><path d="M266.4 28.6 L268.6 29.0 L268.6 51.0 L266.4 51.4 Z" fill="rgb(207, 194, 110)"/><path d="M268.1 29.0 L270.2 29.3 L270.2 50.7 L268.1 51.0 Z" fill="rgb(201, 193, 113)"/><path d="M269.7 29.3 L271.9 29.5 L271.9 50.5 L269.7 50.7 Z" fill="rgb(197, 192, 115)"/><path d="M271.4 29.5 L273.5 29.5 L273.5 50.5 L271.4 50.5 Z" fill="rgb(194, 192, 116)"/><path d="M273.0 29.5 L275.2 29.6 L275.2 50.4 L273.0 50.5 Z" fill="rgb(194, 192, 116)"/><path d="M274.7 29.6 L276.8 29.6 L276.8 50.4 L274.7 50.4 Z" fill="rgb(192, 191, 117)"/><path d="M276.3 29.6 L278.4 29.6 L278.4 50.4 L276.3 50.4 Z" fill="rgb(189, 191, 118)"/><path d="M277.9 29.6 L280.1 29.7 L280.1 50.3 L277.9 50.4 Z" fill="rgb(184, 190, 120)"/><path d="M279.6 29.7 L281.7 29.8 L281.7 50.2 L279.6 50.3 Z" fill="rgb(178, 189, 123)"/><path d="M281.2 29.8 L283.4 29.8 L283.4 50.2 L281.2 50.2 Z" fill="rgb(172, 188, 125)"/><path d="M282.9 29.8 L285.0 29.9 L285.0 50.1 L282.9 50.2 Z" fill="rgb(165, 187, 128)"/><path d="M284.5 29.9 L286.7 30.0 L286.7 50.0 L284.5 50.1 Z" fill="rgb(158, 186, 132)"/><path d="M286.2 30.0 L288.3 30.0 L288.3 50.0 L286.2 50.0 Z" fill="rgb(150, 185, 135)"/><path d="M287.8 30.0 L290.0 30.1 L290.0 49.9 L287.8 50.0 Z" fill="rgb(143, 184, 138)"/><path d="M289.5 30.1 L291.6 30.2 L291.6 49.8 L289.5 49.9 Z" fill="rgb(136, 183, 141)"/><path d="M291.1 30.2 L293.2 30.2 L293.2 49.8 L291.1 49.8 Z" fill="rgb(130, 182, 143)"/><path d="M292.7 30.2 L294.9 30.3 L294.9 49.7 L292.7 49.8 Z" fill="rgb(126, 182, 145)"/><path d="M294.4 30.3 L296.5 30.3 L296.5 49.7 L294.4 49.7 Z" fill="rgb(122, 181, 147)"/><path d="M296.0 30.3 L298.2 30.3 L298.2 49.7 L296.0 49.7 Z" fill="rgb(120, 181, 148)"/><path d="M297.7 30.3 L299.8 30.3 L299.8 49.7 L297.7 49.7 Z" fill="rgb(119, 181, 148)"/><path d="M299.3 30.3 L301.5 30.4 L301.5 49.6 L299.3 49.7 Z" fill="rgb(119, 181, 148)"/><path d="M301.0 30.4 L303.1 30.6 L303.1 49.4 L301.0 49.6 Z" fill="rgb(118, 181, 149)"/><path d="M302.6 30.6 L304.7 30.8 L304.7 49.2 L302.6 49.4 Z" fill="rgb(118, 180, 149)"/><path d="M304.2 30.8 L306.4 31.0 L306.4 49.0 L304.2 49.2 Z" fill="rgb(117, 180, 149)"/><path d="M305.9 31.0 L308.0 31.3 L308.0 48.7 L305.9 49.0 Z" fill="rgb(115, 180, 150)"/><path d="M307.5 31.3 L309.7 31.5 L309.7 48.5 L307.5 48.7 Z" fill="rgb(114, 180, 150)"/><path d="M309.2 31.5 L310.5 31.5 L310.5 48.5 L309.2 48.5 Z" fill="rgb(113, 180, 151)"/>
  <path d="M10.0 31.7 L11.6 31.9 L13.3 32.2 L14.9 32.4 L16.6 32.6 L18.2 32.8 L19.9 32.9 L21.5 33.0 L23.2 33.0 L24.8 33.0 L26.4 33.0 L28.1 32.9 L29.7 32.8 L31.4 32.7 L33.0 32.6 L34.7 32.5 L36.3 32.4 L37.9 32.3 L39.6 32.2 L41.2 32.1 L42.9 32.1 L44.5 32.0 L46.2 32.0 L47.8 32.0 L49.5 31.8 L51.1 31.6 L52.7 31.2 L54.4 30.7 L56.0 30.2 L57.7 29.6 L59.3 29.0 L61.0 28.4 L62.6 27.8 L64.2 27.3 L65.9 26.9 L67.5 26.5 L69.2 26.3 L70.8 26.2 L72.5 26.1 L74.1 25.9 L75.8 25.7 L77.4 25.3 L79.0 24.8 L80.7 24.3 L82.3 23.7 L84.0 23.2 L85.6 22.6 L87.3 22.1 L88.9 21.6 L90.5 21.1 L92.2 20.8 L93.8 20.5 L95.5 20.4 L97.1 20.3 L98.8 20.2 L100.4 19.8 L102.1 19.4 L103.7 18.8 L105.3 18.2 L107.0 17.5 L108.6 16.8 L110.3 16.0 L111.9 15.3 L113.6 14.7 L115.2 14.1 L116.8 13.6 L118.5 13.3 L120.1 13.1 L121.8 13.0 L123.4 13.1 L125.1 13.2 L126.7 13.3 L128.4 13.5 L130.0 13.8 L131.6 14.0 L133.3 14.3 L134.9 14.6 L136.6 14.9 L138.2 15.1 L139.9 15.4 L141.5 15.6 L143.2 15.7 L144.8 15.8 L146.4 15.8 L148.1 15.9 L149.7 16.2 L151.4 16.5 L153.0 17.0 L154.7 17.5 L156.3 18.1 L157.9 18.7 L159.6 19.4 L161.2 20.0 L162.9 20.6 L164.5 21.2 L166.2 21.7 L167.8 22.1 L169.5 22.3 L171.1 22.4 L172.7 22.4 L174.4 22.4 L176.0 22.3 L177.7 22.3 L179.3 22.2 L181.0 22.1 L182.6 22.0 L184.2 21.9 L185.9 21.7 L187.5 21.6 L189.2 21.5 L190.8 21.4 L192.5 21.4 L194.1 21.3 L195.8 21.3 L197.4 21.3 L199.0 21.3 L200.7 21.3 L202.3 21.4 L204.0 21.4 L205.6 21.5 L207.3 21.6 L208.9 21.6 L210.5 21.7 L212.2 21.8 L213.8 21.9 L215.5 21.9 L217.1 22.0 L218.8 22.0 L220.4 22.1 L222.1 22.1 L223.7 22.1 L225.3 22.1 L227.0 22.1 L228.6 22.1 L230.3 22.2 L231.9 22.2 L233.6 22.2 L235.2 22.3 L236.8 22.3 L238.5 22.3 L240.1 22.4 L241.8 22.4 L243.4 22.4 L245.1 22.4 L246.7 22.4 L248.4 22.5 L250.0 22.7 L251.6 23.1 L253.3 23.5 L254.9 24.1 L256.6 24.7 L258.2 25.4 L259.9 26.1 L261.5 26.8 L263.2 27.4 L264.8 28.0 L266.4 28.6 L268.1 29.0 L269.7 29.3 L271.4 29.5 L273.0 29.5 L274.7 29.6 L276.3 29.6 L277.9 29.6 L279.6 29.7 L281.2 29.8 L282.9 29.8 L284.5 29.9 L286.2 30.0 L287.8 30.0 L289.5 30.1 L291.1 30.2 L292.7 30.2 L294.4 30.3 L296.0 30.3 L297.7 30.3 L299.3 30.3 L301.0 30.4 L302.6 30.6 L304.2 30.8 L305.9 31.0 L307.5 31.3 L309.2 31.5 L309.2 48.5 L307.5 48.7 L305.9 49.0 L304.2 49.2 L302.6 49.4 L301.0 49.6 L299.3 49.7 L297.7 49.7 L296.0 49.7 L294.4 49.7 L292.7 49.8 L291.1 49.8 L289.5 49.9 L287.8 50.0 L286.2 50.0 L284.5 50.1 L282.9 50.2 L281.2 50.2 L279.6 50.3 L277.9 50.4 L276.3 50.4 L274.7 50.4 L273.0 50.5 L271.4 50.5 L269.7 50.7 L268.1 51.0 L266.4 51.4 L264.8 52.0 L263.2 52.6 L261.5 53.2 L259.9 53.9 L258.2 54.6 L256.6 55.3 L254.9 55.9 L253.3 56.5 L251.6 56.9 L250.0 57.3 L248.4 57.5 L246.7 57.6 L245.1 57.6 L243.4 57.6 L241.8 57.6 L240.1 57.6 L238.5 57.7 L236.8 57.7 L235.2 57.7 L233.6 57.8 L231.9 57.8 L230.3 57.8 L228.6 57.9 L227.0 57.9 L225.3 57.9 L223.7 57.9 L222.1 57.9 L220.4 57.9 L218.8 58.0 L217.1 58.0 L215.5 58.1 L213.8 58.1 L212.2 58.2 L210.5 58.3 L208.9 58.4 L207.3 58.4 L205.6 58.5 L204.0 58.6 L202.3 58.6 L200.7 58.7 L199.0 58.7 L197.4 58.7 L195.8 58.7 L194.1 58.7 L192.5 58.6 L190.8 58.6 L189.2 58.5 L187.5 58.4 L185.9 58.3 L184.2 58.1 L182.6 58.0 L181.0 57.9 L179.3 57.8 L177.7 57.7 L176.0 57.7 L174.4 57.6 L172.7 57.6 L171.1 57.6 L169.5 57.7 L167.8 57.9 L166.2 58.3 L164.5 58.8 L162.9 59.4 L161.2 60.0 L159.6 60.6 L157.9 61.3 L156.3 61.9 L154.7 62.5 L153.0 63.0 L151.4 63.5 L149.7 63.8 L148.1 64.1 L146.4 64.2 L144.8 64.2 L143.2 64.3 L141.5 64.4 L139.9 64.6 L138.2 64.9 L136.6 65.1 L134.9 65.4 L133.3 65.7 L131.6 66.0 L130.0 66.2 L128.4 66.5 L126.7 66.7 L125.1 66.8 L123.4 66.9 L121.8 67.0 L120.1 66.9 L118.5 66.7 L116.8 66.4 L115.2 65.9 L113.6 65.3 L111.9 64.7 L110.3 64.0 L108.6 63.2 L107.0 62.5 L105.3 61.8 L103.7 61.2 L102.1 60.6 L100.4 60.2 L98.8 59.8 L97.1 59.7 L95.5 59.6 L93.8 59.5 L92.2 59.2 L90.5 58.9 L88.9 58.4 L87.3 57.9 L85.6 57.4 L84.0 56.8 L82.3 56.3 L80.7 55.7 L79.0 55.2 L77.4 54.7 L75.8 54.3 L74.1 54.1 L72.5 53.9 L70.8 53.8 L69.2 53.7 L67.5 53.5 L65.9 53.1 L64.2 52.7 L62.6 52.2 L61.0 51.6 L59.3 51.0 L57.7 50.4 L56.0 49.8 L54.4 49.3 L52.7 48.8 L51.1 48.4 L49.5 48.2 L47.8 48.0 L46.2 48.0 L44.5 48.0 L42.9 47.9 L41.2 47.9 L39.6 47.8 L37.9 47.7 L36.3 47.6 L34.7 47.5 L33.0 47.4 L31.4 47.3 L29.7 47.2 L28.1 47.1 L26.4 47.0 L24.8 47.0 L23.2 47.0 L21.5 47.0 L19.9 47.1 L18.2 47.2 L16.6 47.4 L14.9 47.6 L13.3 47.8 L11.6 48.1 L10.0 48.3 Z" fill="none" stroke="#1a1a1a" stroke-opacity="0.22" stroke-width="0.8" stroke-linejoin="round"/>
</svg>
