<?xml version="1.0" encoding="UTF-8"?>
<svg xmlns="http://www.w3.org/2000/svg" viewBox="0 0 320 80" role="img">
  <title>Saint Petersburg seasonal climate ribbon</title>
  <path d="M10.0 24.9 L11.6 25.0 L11.6 55.0 L10.0 55.1 Z" fill="rgb(60, 142, 198)"/><path d="M11.6 25.0 L13.3 25.2 L13.3 54.8 L11.6 55.0 Z" fill="rgb(59, 142, 199)"/><path d="M13.3 25.2 L14.9 25.4 L14.9 54.6 L13.3 54.8 Z" fill="rgb(58, 141, 199)"/><path d="M14.9 25.4 L16.6 25.5 L16.6 54.5 L14.9 54.6 Z" fill="rgb(58, 140, 200)"/><path d="M16.6 25.5 L18.2 25.7 L18.2 54.3 L16.6 54.5 Z" fill="rgb(57, 139, 201)"/><path d="M18.2 25.7 L19.9 25.7 L19.9 54.3 L18.2 54.3 Z" fill="rgb(57, 139, 201)"/><path d="M19.9 25.7 L21.5 25.8 L21.5 54.2 L19.9 54.3 Z" fill="rgb(56, 138, 202)"/><path d="M21.5 25.8 L23.2 25.8 L23.2 54.2 L21.5 54.2 Z" fill="rgb(56, 138, 202)"/><path d="M23.2 25.8 L24.8 25.9 L24.8 54.1 L23.2 54.2 Z" fill="rgb(56, 138, 202)"/><path d="M24.8 25.9 L26.4 26.0 L26.4 54.0 L24.8 54.1 Z" fill="rgb(56, 138, 202)"/><path d="M26.4 26.0 L28.1 26.1 L28.1 53.9 L26.4 54.0 Z" fill="rgb(56, 138, 202)"/><path d="M28.1 26.1 L29.7 26.3 L29.7 53.7 L28.1 53.9 Z" fill="rgb(56, 138, 202)"/><path d="M29.7 26.3 L31.4 26.6 L31.4 53.4 L29.7 53.7 Z" fill="rgb(56, 138, 202)"/><path d="M31.4 26.6 L33.0 26.8 L33.0 53.2 L31.4 53.4 Z" fill="rgb(56, 139, 202)"/><path d="M33.0 26.8 L34.7 27.1 L34.7 52.9 L33.0 53.2 Z" fill="rgb(57, 139, 202)"/><path d="M34.7 27.1 L36.3 27.4 L36.3 52.6 L34.7 52.9 Z" fill="rgb(57, 139, 201)"/><path d="M36.3 27.4 L37.9 27.6 L37.9 52.4 L36.3 52.6 Z" fill="rgb(57, 139, 201)"/><path d="M37.9 27.6 L39.6 27.8 L39.6 52.2 L37.9 52.4 Z" fill="rgb(57, 139, 201)"/><path d="M39.6 27.8 L41.2 28.1 L41.2 51.9 L39.6 52.2 Z" fill="rgb(57, 139, 201)"/><path d="M41.2 28.1 L42.9 28.2 L42.9 51.8 L41.2 51.9 Z" fill="rgb(57, 139, 201)"/><path d="M42.9 28.2 L44.5 28.4 L44.5 51.6 L42.9 51.8 Z" fill="rgb(57, 139, 201)"/><path d="M44.5 28.4 L46.2 28.4 L46.2 51.6 L44.5 51.6 Z" fill="rgb(57, 140, 201)"/><path d="M46.2 28.4 L47.8 28.4 L47.8 51.6 L46.2 51.6 Z" fill="rgb(57, 140, 201)"/><path d="M47.8 28.4 L49.5 28.4 L49.5 51.6 L47.8 51.6 Z" fill="rgb(57, 140, 201)"/><path d="M49.5 28.4 L51.1 28.3 L51.1 51.7 L49.5 51.6 Z" fill="rgb(58, 140, 200)"/><path d="M51.1 28.3 L52.7 28.2 L52.7 51.8 L51.1 51.7 Z" fill="rgb(58, 141, 199)"/><path d="M52.7 28.2 L54.4 28.1 L54.4 51.9 L52.7 51.8 Z" fill="rgb(59, 142, 198)"/><path d="M54.4 28.1 L56.0 27.9 L56.0 52.1 L54.4 51.9 Z" fill="rgb(60, 144, 196)"/><path d="M56.0 27.9 L57.7 27.8 L57.7 52.2 L56.0 52.1 Z" fill="rgb(62, 145, 195)"/><path d="M57.7 27.8 L59.3 27.6 L59.3 52.4 L57.7 52.2 Z" fill="rgb(63, 147, 193)"/><path d="M59.3 27.6 L61.0 27.5 L61.0 52.5 L59.3 52.4 Z" fill="rgb(65, 149, 191)"/><path d="M61.0 27.5 L62.6 27.3 L62.6 52.7 L61.0 52.5 Z" fill="rgb(66, 150, 189)"/><path d="M62.6 27.3 L64.2 27.2 L64.2 52.8 L62.6 52.7 Z" fill="rgb(68, 152, 187)"/><path d="M64.2 27.2 L65.9 27.1 L65.9 52.9 L64.2 52.8 Z" fill="rgb(69, 154, 186)"/><path d="M65.9 27.1 L67.5 27.0 L67.5 53.0 L65.9 52.9 Z" fill="rgb(70, 155, 184)"/><path d="M67.5 27.0 L69.2 26.9 L69.2 53.1 L67.5 53.0 Z" fill="rgb(71, 156, 183)"/><path d="M69.2 26.9 L70.8 26.9 L70.8 53.1 L69.2 53.1 Z" fill="rgb(71, 157, 182)"/><path d="M70.8 26.9 L72.5 26.9 L72.5 53.1 L70.8 53.1 Z" fill="rgb(72, 157, 182)"/><path d="M72.5 26.9 L74.1 26.8 L74.1 53.2 L72.5 53.1 Z" fill="rgb(72, 157, 182)"/><path d="M74.1 26.8 L75.8 26.7 L75.8 53.3 L74.1 53.2 Z" fill="rgb(72, 158, 181)"/><path d="M75.8 26.7 L77.4 26.6 L77.4 53.4 L75.8 53.3 Z" fill="rgb(73, 159, 180)"/><path d="M77.4 26.6 L79.0 26.4 L79.0 53.6 L77.4 53.4 Z" fill="rgb(75, 161, 178)"/><path d="M79.0 26.4 L80.7 26.3 L80.7 53.7 L79.0 53.6 Z" fill="rgb(76, 163, 176)"/><path d="M80.7 26.3 L82.3 26.1 L82.3 53.9 L80.7 53.7 Z" fill="rgb(78, 165, 173)"/><path d="M82.3 26.1 L84.0 25.9 L84.0 54.1 L82.3 53.9 Z" fill="rgb(80, 168, 171)"/><path d="M84.0 25.9 L85.6 25.7 L85.6 54.3 L84.0 54.1 Z" fill="rgb(82, 170, 168)"/><path d="M85.6 25.7 L87.3 25.5 L87.3 54.5 L85.6 54.3 Z" fill="rgb(84, 172, 166)"/><path d="M87.3 25.5 L88.9 25.3 L88.9 54.7 L87.3 54.5 Z" fill="rgb(86, 175, 163)"/><path d="M88.9 25.3 L90.5 25.2 L90.5 54.8 L88.9 54.7 Z" fill="rgb(90, 176, 161)"/><path d="M90.5 25.2 L92.2 25.1 L92.2 54.9 L90.5 54.8 Z" fill="rgb(98, 178, 157)"/><path d="M92.2 25.1 L93.8 25.0 L93.8 55.0 L92.2 54.9 Z" fill="rgb(104, 178, 155)"/><path d="M93.8 25.0 L95.5 24.9 L95.5 55.1 L93.8 55.0 Z" fill="rgb(108, 179, 153)"/><path d="M95.5 24.9 L97.1 24.9 L97.1 55.1 L95.5 55.1 Z" fill="rgb(111, 179, 152)"/><path d="M97.1 24.9 L98.8 24.8 L98.8 55.2 L97.1 55.1 Z" fill="rgb(111, 180, 152)"/><path d="M98.8 24.8 L100.4 24.6 L100.4 55.4 L98.8 55.2 Z" fill="rgb(113, 180, 151)"/><path d="M100.4 24.6 L102.1 24.4 L102.1 55.6 L100.4 55.4 Z" fill="rgb(117, 180, 149)"/><path d="M102.1 24.4 L103.7 24.0 L103.7 56.0 L102.1 55.6 Z" fill="rgb(123, 181, 147)"/><path d="M103.7 24.0 L105.3 23.6 L105.3 56.4 L103.7 56.0 Z" fill="rgb(129, 182, 144)"/><path d="M105.3 23.6 L107.0 23.2 L107.0 56.8 L105.3 56.4 Z" fill="rgb(137, 183, 141)"/><path d="M107.0 23.2 L108.6 22.8 L108.6 57.2 L107.0 56.8 Z" fill="rgb(145, 184, 137)"/><path d="M108.6 22.8 L110.3 22.4 L110.3 57.6 L108.6 57.2 Z" fill="rgb(153, 186, 133)"/><path d="M110.3 22.4 L111.9 22.0 L111.9 58.0 L110.3 57.6 Z" fill="rgb(162, 187, 130)"/><path d="M111.9 22.0 L113.6 21.6 L113.6 58.4 L111.9 58.0 Z" fill="rgb(170, 188, 126)"/><path d="M113.6 21.6 L115.2 21.2 L115.2 58.8 L113.6 58.4 Z" fill="rgb(178, 189, 123)"/><path d="M115.2 21.2 L116.8 20.9 L116.8 59.1 L115.2 58.8 Z" fill="rgb(185, 190, 120)"/><path d="M116.8 20.9 L118.5 20.7 L118.5 59.3 L116.8 59.1 Z" fill="rgb(190, 191, 117)"/><path d="M118.5 20.7 L120.1 20.6 L120.1 59.4 L118.5 59.3 Z" fill="rgb(195, 192, 116)"/><path d="M120.1 20.6 L121.8 20.6 L121.8 59.4 L120.1 59.4 Z" fill="rgb(197, 192, 114)"/><path d="M121.8 20.6 L123.4 20.5 L123.4 59.5 L121.8 59.4 Z" fill="rgb(198, 192, 114)"/><path d="M123.4 20.5 L125.1 20.2 L125.1 59.8 L123.4 59.5 Z" fill="rgb(199, 192, 114)"/><path d="M125.1 20.2 L126.7 19.9 L126.7 60.1 L125.1 59.8 Z" fill="rgb(202, 193, 113)"/><path d="M126.7 19.9 L128.4 19.4 L128.4 60.6 L126.7 60.1 Z" fill="rgb(205, 193, 111)"/><path d="M128.4 19.4 L130.0 18.9 L130.0 61.1 L128.4 60.6 Z" fill="rgb(210, 194, 109)"/><path d="M130.0 18.9 L131.6 18.4 L131.6 61.6 L130.0 61.1 Z" fill="rgb(215, 195, 107)"/><path d="M131.6 18.4 L133.3 17.8 L133.3 62.2 L131.6 61.6 Z" fill="rgb(217, 193, 105)"/><path d="M133.3 17.8 L134.9 17.2 L134.9 62.8 L133.3 62.2 Z" fill="rgb(218, 190, 102)"/><path d="M134.9 17.2 L136.6 16.6 L136.6 63.4 L134.9 62.8 Z" fill="rgb(218, 186, 100)"/><path d="M136.6 16.6 L138.2 16.1 L138.2 63.9 L136.6 63.4 Z" fill="rgb(218, 183, 98)"/><path d="M138.2 16.1 L139.9 15.6 L139.9 64.4 L138.2 63.9 Z" fill="rgb(218, 180, 96)"/><path d="M139.9 15.6 L141.5 15.2 L141.5 64.8 L139.9 64.4 Z" fill="rgb(219, 178, 95)"/><path d="M141.5 15.2 L143.2 14.9 L143.2 65.1 L141.5 64.8 Z" fill="rgb(219, 175, 93)"/><path d="M143.2 14.9 L144.8 14.7 L144.8 65.3 L143.2 65.1 Z" fill="rgb(219, 174, 92)"/><path d="M144.8 14.7 L146.4 14.6 L146.4 65.4 L144.8 65.3 Z" fill="rgb(219, 173, 91)"/><path d="M146.4 14.6 L148.1 14.6 L148.1 65.4 L146.4 65.4 Z" fill="rgb(219, 172, 91)"/><path d="M148.1 14.6 L149.7 14.5 L149.7 65.5 L148.1 65.4 Z" fill="rgb(219, 172, 91)"/><path d="M149.7 14.5 L151.4 14.4 L151.4 65.6 L149.7 65.5 Z" fill="rgb(219, 171, 90)"/><path d="M151.4 14.4 L153.0 14.3 L153.0 65.7 L151.4 65.6 Z" fill="rgb(219, 170, 90)"/><path d="M153.0 14.3 L154.7 14.2 L154.7 65.8 L153.0 65.7 Z" fill="rgb(220, 169, 89)"/><path d="M154.7 14.2 L156.3 14.1 L156.3 65.9 L154.7 65.8 Z" fill="rgb(220, 167, 88)"/><path d="M156.3 14.1 L157.9 13.9 L157.9 66.1 L156.3 65.9 Z" fill="rgb(220, 165, 86)"/><path d="M157.9 13.9 L159.6 13.7 L159.6 66.3 L157.9 66.1 Z" fill="rgb(220, 163, 85)"/><path d="M159.6 13.7 L161.2 13.6 L161.2 66.4 L159.6 66.3 Z" fill="rgb(220, 161, 84)"/><path d="M161.2 13.6 L162.9 13.4 L162.9 66.6 L161.2 66.4 Z" fill="rgb(220, 159, 82)"/><path d="M162.9 13.4 L164.5 13.3 L164.5 66.7 L162.9 66.6 Z" fill="rgb(221, 157, 81)"/><path d="M164.5 13.3 L166.2 13.2 L166.2 66.8 L164.5 66.7 Z" fill="rgb(221, 155, 80)"/><path d="M166.2 13.2 L167.8 13.1 L167.8 66.9 L166.2 66.8 Z" fill="rgb(221, 154, 79)"/><path d="M167.8 13.1 L169.5 13.0 L169.5 67.0 L167.8 66.9 Z" fill="rgb(221, 153, 78)"/><path d="M169.5 13.0 L171.1 13.0 L171.1 67.0 L169.5 67.0 Z" fill="rgb(221, 152, 78)"/><path d="M171.1 13.0 L172.7 13.0 L172.7 67.0 L171.1 67.0 Z" fill="rgb(221, 151, 77)"/><path d="M172.7 13.0 L174.4 13.1 L174.4 66.9 L172.7 67.0 Z" fill="rgb(221, 151, 77)"/><path d="M174.4 13.1 L176.0 13.1 L176.0 66.9 L174.4 66.9 Z" fill="rgb(221, 152, 77)"/><path d="M176.0 13.1 L177.7 13.2 L177.7 66.8 L176.0 66.9 Z" fill="rgb(221, 152, 78)"/><path d="M177.7 13.2 L179.3 13.4 L179.3 66.6 L177.7 66.8 Z" fill="rgb(221, 153, 78)"/><path d="M179.3 13.4 L181.0 13.5 L181.0 66.5 L179.3 66.6 Z" fill="rgb(221, 154, 79)"/><path d="M181.0 13.5 L182.6 13.7 L182.6 66.3 L181.0 66.5 Z" fill="rgb(221, 154, 79)"/><path d="M182.6 13.7 L184.2 13.8 L184.2 66.2 L182.6 66.3 Z" fill="rgb(221, 155, 80)"/><path d="M184.2 13.8 L185.9 14.0 L185.9 66.0 L184.2 66.2 Z" fill="rgb(221, 156, 81)"/><path d="M185.9 14.0 L187.5 14.2 L187.5 65.8 L185.9 66.0 Z" fill="rgb(221, 157, 81)"/><path d="M187.5 14.2 L189.2 14.3 L189.2 65.7 L187.5 65.8 Z" fill="rgb(221, 158, 82)"/><path d="M189.2 14.3 L190.8 14.4 L190.8 65.6 L189.2 65.7 Z" fill="rgb(220, 159, 83)"/><path d="M190.8 14.4 L192.5 14.5 L192.5 65.5 L190.8 65.6 Z" fill="rgb(220, 160, 83)"/><path d="M192.5 14.5 L194.1 14.6 L194.1 65.4 L192.5 65.5 Z" fill="rgb(220, 161, 83)"/><path d="M194.1 14.6 L195.8 14.7 L195.8 65.3 L194.1 65.4 Z" fill="rgb(220, 161, 84)"/><path d="M195.8 14.7 L197.4 14.7 L197.4 65.3 L195.8 65.3 Z" fill="rgb(220, 162, 84)"/><path d="M197.4 14.7 L199.0 14.8 L199.0 65.2 L197.4 65.3 Z" fill="rgb(220, 162, 84)"/><path d="M199.0 14.8 L200.7 15.1 L200.7 64.9 L199.0 65.2 Z" fill="rgb(220, 162, 84)"/><path d="M200.7 15.1 L202.3 15.5 L202.3 64.5 L200.7 64.9 Z" fill="rgb(220, 164, 85)"/><path d="M202.3 15.5 L204.0 16.0 L204.0 64.0 L202.3 64.5 Z" fill="rgb(220, 166, 87)"/><path d="M204.0 16.0 L205.6 16.6 L205.6 63.4 L204.0 64.0 Z" fill="rgb(220, 168, 88)"/><path d="M205.6 16.6 L207.3 17.2 L207.3 62.8 L205.6 63.4 Z" fill="rgb(219, 171, 90)"/><path d="M207.3 17.2 L208.9 17.9 L208.9 62.1 L207.3 62.8 Z" fill="rgb(219, 174, 92)"/><path d="M208.9 17.9 L210.5 18.6 L210.5 61.4 L208.9 62.1 Z" fill="rgb(219, 178, 95)"/><path d="M210.5 18.6 L212.2 19.3 L212.2 60.7 L210.5 61.4 Z" fill="rgb(218, 181, 97)"/><path d="M212.2 19.3 L213.8 19.9 L213.8 60.1 L212.2 60.7 Z" fill="rgb(218, 184, 99)"/><path d="M213.8 19.9 L215.5 20.5 L215.5 59.5 L213.8 60.1 Z" fill="rgb(218, 187, 101)"/><path d="M215.5 20.5 L217.1 21.0 L217.1 59.0 L215.5 59.5 Z" fill="rgb(217, 190, 103)"/><path d="M217.1 21.0 L218.8 21.3 L218.8 58.7 L217.1 59.0 Z" fill="rgb(217, 193, 104)"/><path d="M218.8 21.3 L220.4 21.6 L220.4 58.4 L218.8 58.7 Z" fill="rgb(217, 194, 106)"/><path d="M220.4 21.6 L222.1 21.7 L222.1 58.3 L220.4 58.4 Z" fill="rgb(216, 195, 106)"/><path d="M222.1 21.7 L223.7 21.6 L223.7 58.4 L222.1 58.3 Z" fill="rgb(215, 195, 107)"/><path d="M223.7 21.6 L225.3 21.6 L225.3 58.4 L223.7 58.4 Z" fill="rgb(214, 195, 107)"/><path d="M225.3 21.6 L227.0 21.4 L227.0 58.6 L225.3 58.4 Z" fill="rgb(211, 194, 109)"/><path d="M227.0 21.4 L228.6 21.3 L228.6 58.7 L227.0 58.6 Z" fill="rgb(206, 193, 111)"/><path d="M228.6 21.3 L230.3 21.1 L230.3 58.9 L228.6 58.7 Z" fill="rgb(199, 192, 114)"/><path d="M230.3 21.1 L231.9 20.9 L231.9 59.1 L230.3 58.9 Z" fill="rgb(192, 191, 117)"/><path d="M231.9 20.9 L233.6 20.7 L233.6 59.3 L231.9 59.1 Z" fill="rgb(183, 190, 121)"/><path d="M233.6 20.7 L235.2 20.5 L235.2 59.5 L233.6 59.3 Z" fill="rgb(174, 189, 124)"/><path d="M235.2 20.5 L236.8 20.3 L236.8 59.7 L235.2 59.5 Z" fill="rgb(165, 187, 128)"/><path d="M236.8 20.3 L238.5 20.1 L238.5 59.9 L236.8 59.7 Z" fill="rgb(156, 186, 132)"/><path d="M238.5 20.1 L240.1 20.0 L240.1 60.0 L238.5 59.9 Z" fill="rgb(148, 185, 136)"/><path d="M240.1 20.0 L241.8 19.8 L241.8 60.2 L240.1 60.0 Z" fill="rgb(140, 184, 139)"/><path d="M241.8 19.8 L243.4 19.7 L243.4 60.3 L241.8 60.2 Z" fill="rgb(133, 183, 142)"/><path d="M243.4 19.7 L245.1 19.6 L245.1 60.4 L243.4 60.3 Z" fill="rgb(128, 182, 144)"/><path d="M245.1 19.6 L246.7 19.6 L246.7 60.4 L245.1 60.4 Z" fill="rgb(124, 181, 146)"/><path d="M246.7 19.6 L248.4 19.6 L248.4 60.4 L246.7 60.4 Z" fill="rgb(122, 181, 147)"/><path d="M248.4 19.6 L250.0 19.6 L250.0 60.4 L248.4 60.4 Z" fill="rgb(122, 181, 147)"/><path d="M250.0 19.6 L251.6 19.7 L251.6 60.3 L250.0 60.4 Z" fill="rgb(119, 181, 148)"/><path d="M251.6 19.7 L253.3 19.8 L253.3 60.2 L251.6 60.3 Z" fill="rgb(114, 180, 150)"/><path d="M253.3 19.8 L254.9 20.0 L254.9 60.0 L253.3 60.2 Z" fill="rgb(108, 179, 153)"/><path d="M254.9 20.0 L256.6 20.2 L256.6 59.8 L254.9 60.0 Z" fill="rgb(101, 178, 156)"/><path d="M256.6 20.2 L258.2 20.3 L258.2 59.7 L256.6 59.8 Z" fill="rgb(93, 177, 160)"/><path d="M258.2 20.3 L259.9 20.5 L259.9 59.5 L258.2 59.7 Z" fill="rgb(86, 175, 163)"/><path d="M259.9 20.5 L261.5 20.7 L261.5 59.3 L259.9 59.5 Z" fill="rgb(84, 173, 165)"/><path d="M261.5 20.7 L263.2 20.9 L263.2 59.1 L261.5 59.3 Z" fill="rgb(83, 171, 168)"/><path d="M263.2 20.9 L264.8 21.0 L264.8 59.0 L263.2 59.1 Z" fill="rgb(81, 168, 170)"/><path d="M264.8 21.0 L266.4 21.2 L266.4 58.8 L264.8 59.0 Z" fill="rgb(79, 166, 172)"/><path d="M266.4 21.2 L268.1 21.3 L268.1 58.7 L266.4 58.8 Z" fill="rgb(78, 165, 174)"/><path d="M268.1 21.3 L269.7 21.4 L269.7 58.6 L268.1 58.7 Z" fill="rgb(77, 163, 176)"/><path d="M269.7 21.4 L271.4 21.4 L271.4 58.6 L269.7 58.6 Z" fill="rgb(76, 162, 177)"/><path d="M271.4 21.4 L273.0 21.4 L273.0 58.6 L271.4 58.6 Z" fill="rgb(75, 162, 177)"/><path d="M273.0 21.4 L274.7 21.5 L274.7 58.5 L273.0 58.6 Z" fill="rgb(75, 162, 177)"/><path d="M274.7 21.5 L276.3 21.6 L276.3 58.4 L274.7 58.5 Z" fill="rgb(75, 161, 178)"/><path d="M276.3 21.6 L277.9 21.8 L277.9 58.2 L276.3 58.4 Z" fill="rgb(74, 161, 178)"/><path d="M277.9 21.8 L279.6 22.0 L279.6 58.0 L277.9 58.2 Z" fill="rgb(74, 160, 179)"/><path d="M279.6 22.0 L281.2 22.2 L281.2 57.8 L279.6 58.0 Z" fill="rgb(73, 158, 181)"/><path d="M281.2 22.2 L282.9 22.4 L282.9 57.6 L281.2 57.8 Z" fill="rgb(72, 157, 182)"/><path d="M282.9 22.4 L284.5 22.6 L284.5 57.4 L282.9 57.6 Z" fill="rgb(70, 156, 183)"/><path d="M284.5 22.6 L286.2 22.9 L286.2 57.1 L284.5 57.4 Z" fill="rgb(69, 154, 185)"/><path d="M286.2 22.9 L287.8 23.1 L287.8 56.9 L286.2 57.1 Z" fill="rgb(68, 153, 187)"/><path d="M287.8 23.1 L289.5 23.3 L289.5 56.7 L287.8 56.9 Z" fill="rgb(67, 151, 188)"/><path d="M289.5 23.3 L291.1 23.5 L291.1 56.5 L289.5 56.7 Z" fill="rgb(66, 150, 190)"/><path d="M291.1 23.5 L292.7 23.7 L292.7 56.3 L291.1 56.5 Z" fill="rgb(65, 149, 191)"/><path d="M292.7 23.7 L294.4 23.8 L294.4 56.2 L292.7 56.3 Z" fill="rgb(64, 148, 192)"/><path d="M294.4 23.8 L296.0 23.9 L296.0 56.1 L294.4 56.2 Z" fill="rgb(63, 147, 193)"/><path d="M296.0 23.9 L297.7 23.9 L297.7 56.1 L296.0 56.1 Z" fill="rgb(63, 147, 193)"/><path d="M297.7 23.9 L299.3 24.0 L299.3 56.0 L297.7 56.1 Z" fill="rgb(63, 147, 193)"/><path d="M299.3 24.0 L301.0 24.0 L301.0 56.0 L299.3 56.0 Z" fill="rgb(63, 146, 193)"/><path d="M301.0 24.0 L302.6 24.1 L302.6 55.9 L301.0 56.0 Z" fill="rgb(63, 146, 194)"/><path d="M302.6 24.1 L304.2 24.3 L304.2 55.7 L302.6 55.9 Z" fill="rgb(62, 146, 194)"/><path d="M304.2 24.3 L305.9 24.4 L305.9 55.6 L304.2 55.7 Z" fill="rgb(62, 145, 195)"/><path d="M305.9 24.4 L307.5 24.6 L307.5 55.4 L305.9 55.6 Z" fill="rgb(61, 144, 196)"/><path d="M307.5 24.6 L309.2 24.8 L309.2 55.2 L307.5 55.4 Z" fill="rgb(61, 144, 196)"/><path d="M309.2 24.8 L310.0 24.8 L310.0 55.2 L309.2 55.2 Z" fill="rgb(60, 143, 197)"/>
  <path d="M10.0 24.9 L11.6 25.0 L13.3 25.2 L14.9 25.4 L16.6 25.5 L18.2 25.7 L19.9 25.7 L21.5 25.8 L23.2 25.8 L24.8 25.9 L26.4 26.0 L28.1 26.1 L29.7 26.3 L31.4 26.6 L33.0 26.8 L34.7 27.1 L36.3 27.4 L37.9 27.6 L39.6 27.8 L41.2 28.1 L42.9 28.2 L44.5 28.4 L46.2 28.4 L47.8 28.4 L49.5 28.4 L51.1 28.3 L52.7 28.2 L54.4 28.1 L56.0 27.9 L57.7 27.8 L59.3 27.6 L61.0 27.5 L62.6 27.3 L64.2 27.2 L65.9 27.1 L67.5 27.0 L69.2 26.9 L70.8 26.9 L72.5 26.9 L74.1 26.8 L75.8 26.7 L77.4 26.6 L79.0 26.4 L80.7 26.3 L82.3 26.1 L84.0 25.9 L85.6 25.7 L87.3 25.5 L88.9 25.3 L90.5 25.2 L92.2 25.1 L93.8 25.0 L95.5 24.9 L97.1 24.9 L98.8 24.8 L100.4 24.6 L102.1 24.4 L103.7 24.0 L105.3 23.6 L107.0 23.2 L108.6 22.8 L110.3 22.4 L111.9 22.0 L113.6 21.6 L115.2 21.2 L116.8 20.9 L118.5 20.7 L120.1 20.6 L121.8 20.6 L123.4 20.5 L125.1 20.2 L126.7 19.9 L128.4 19.4 L130.0 18.9 L131.6 18.4 L133.3 17.8 L134.9 17.2 L136.6 16.6 L138.2 16.1 L139.9 15.6 L141.5 15.2 L143.2 14.9 L144.8 14.7 L146.4 14.6 L148.1 14.6 L149.7 14.5 L151.4 14.4 L153.0 14.3 L154.7 14.2 L156.3 14.1 L157.9 13.9 L159.6 13.7 L161.2 13.6 L162.9 13.4 L164.5 13.3 L166.2 13.2 L167.8 13.1 L169.5 13.0 L171.1 13.0 L172.7 13.0 L174.4 13.1 L176.0 13.1 L177.7 13.2 L179.3 13.4 L181.0 13.5 L182.6 13.7 L184.2 13.8 L185.9 14.0 L187.5 14.2 L189.2 14.3 L190.8 14.4 L192.5 14.5 L194.1 14.6 L195.8 14.7 L197.4 14.7 L199.0 14.8 L200.7 15.1 L202.3 15.5 L204.0 16.0 L205.6 16.6 L207.3 17.2 L208.9 17.9 L210.5 18.6 L212.2 19.3 L213.8 19.9 L215.5 20.5 L217.1 21.0 L218.8 21.3 L220.4 21.6 L222.1 21.7 L223.7 21.6 L225.3 21.6 L227.0 21.4 L228.6 21.3 L230.3 21.1 L231.9 20.9 L233.6 20.7 L235.2 20.5 L236.8 20.3 L238.5 20.1 L240.1 20.0 L241.8 19.8 L243.4 19.7 L245.1 19.6 L246.7 19.6 L248.4 19.6 L250.0 19.6 L251.6 19.7 L253.3 19.8 L254.9 20.0 L256.6 20.2 L258.2 20.3 L259.9 20.5 L261.5 20.7 L263.2 20.9 L264.8 21.0 L266.4 21.2 L268.1 21.3 L269.7 21.4 L271.4 21.4 L273.0 21.4 L274.7 21.5 L276.3 21.6 L277.9 21.8 L279.6 22.0 L281.2 22.2 L282.9 22.4 L284.5 22.6 L286.2 22.9 L287.8 23.1 L289.5 23.3 L291.1 23.5 L292.7 23.7 L294.4 23.8 L296.0 23.9 L297.7 23.9 L299.3 24.0 L301.0 24.0 L302.6 24.1 L304.2 24.3 L305.9 24.4 L307.5 24.6 L309.2 24.8 L309.2 55.2 L307.5 55.4 L305.9 55.6 L304.2 55.7 L302.6 55.9 L301.0 56.0 L299.3 56.0 L297.7 56.1 L296.0 56.1 L294.4 56.2 L292.7 56.3 L291.1 56.5 L289.5 56.7 L287.8 56.9 L286.2 57.1 L284.5 57.4 L282.9 57.6 L281.2 57.8 L279.6 58.0 L277.9 58.2 L276.3 58.4 L274.7 58.5 L273.0 58.6 L271.4 58.6 L269.7 58.6 L268.1 58.7 L266.4 58.8 L264.8 59.0 L263.2 59.1 L261.5 59.3 L259.9 59.5 L258.2 59.7 L256.6 59.8 L254.9 60.0 L253.3 60.2 L251.6 60.3 L250.0 60.4 L248.4 60.4 L246.7 60.4 L245.1 60.4 L243.4 60.3 L241.8 60.2 L240.1 60.0 L238.5 59.9 L236.8 59.7 L235.2 59.5 L233.6 59.3 L231.9 59.1 L230.3 58.9 L228.6 58.7 L227.0 58.6 L225.3 58.4 L223.7 58.4 L222.1 58.3 L220.4 58.4 L218.8 58.7 L217.1 59.0 L215.5 59.5 L213.8 60.1 L212.2 60.7 L210.5 61.4 L208.9 62.1 L207.3 62.8 L205.6 63.4 L204.0 64.0 L202.3 64.5 L200.7 64.9 L199.0 65.2 L197.4 65.3 L195.8 65.3 L194.1 65.4 L192.5 65.5 L190.8 65.6 L189.2 65.7 L187.5 65.8 L185.9 66.0 L184.2 66.2 L182.6 66.3 L181.0 66.5 L179.3 66.6 L177.7 66.8 L176.0 66.9 L174.4 66.9 L172.7 67.0 L171.1 67.0 L169.5 67.0 L167.8 66.9 L166.2 66.8 L164.5 66.7 L162.9 66.6 L161.2 66.4 L159.6 66.3 L157.9 66.1 L156.3 65.9 L154.7 65.8 L153.0 65.7 L151.4 65.6 L149.7 65.5 L148.1 65.4 L146.4 65.4 L144.8 65.3 L143.2 65.1 L141.5 64.8 L139.9 64.4 L138.2 63.9 L136.6 63.4 L134.9 62.8 L133.3 62.2 L131.6 61.6 L130.0 61.1 L128.4 60.6 L126.7 60.1 L125.1 59.8 L123.4 59.5 L121.8 59.4 L120.1 59.4 L118.5 59.3 L116.8 59.1 L115.2 58.8 L113.6 58.4 L111.9 58.0 L110.3 57.6 L108.6 57.2 L107.0 56.8 L105.3 56.4 L103.7 56.0 L102.1 55.6 L100.4 55.4 L98.8 55.2 L97.1 55.1 L95.5 55.1 L93.8 55.0 L92.2 54.9 L90.5 54.8 L88.9 54.7 L87.3 54.5 L85.6 54.3 L84.0 54.1 L82.3 53.9 L80.7 53.7 L79.0 53.6 L77.4 53.4 L75.8 53.3 L74.1 53.2 L72.5 53.1 L70.8 53.1 L69.2 53.1 L67.5 53.0 L65.9 52.9 L64.2 52.8 L62.6 52.7 L61.0 52.5 L59.3 52.4 L57.7 52.2 L56.0 52.1 L54.4 51.9 L52.7 51.8 L51.1 51.7 L49.5 51.6 L47.8 51.6 L46.2 51.6 L44.5 51.6 L42.9 51.8 L41.2 51.9 L39.6 52.2 L37.9 52.4 L36.3 52.6 L34.7 52.9 L33.0 53.2 L31.4 53.4 L29.7 53.7 L28.1 53.9 L26.4 54.0 L24.8 54.1 L23.2 54.2 L21.5 54.2 L19.9 54.3 L18.2 54.3 L16.6 54.5 L14.9 54.6 L13.3 54.8 L11.6 55.0 L10.0 55.1 Z" fill="none" stroke="#1a1a1a" stroke-opacity="0.22" stroke-width="0.8" stroke-linejoin="round"/>
</svg>
