<?xml version="1.0" encoding="UTF-8"?>
<svg xmlns="http://www.w3.org/2000/svg" viewBox="0 0 320 80" role="img">
  <title>Tehran seasonal climate ribbon</title>
  <path d="M10.0 18.6 L12.1 18.6 L12.1 61.4 L10.0 61.4 Z" fill="rgb(129, 182, 144)"/><path d="M11.6 18.6 L13.8 18.6 L13.8 61.4 L11.6 61.4 Z" fill="rgb(127, 182, 145)"/><path d="M13.3 18.6 L15.4 18.6 L15.4 61.4 L13.3 61.4 Z" fill="rgb(125, 181, 146)"/><path d="M14.9 18.6 L17.1 18.6 L17.1 61.4 L14.9 61.4 Z" fill="rgb(122, 181, 147)"/><path d="M16.6 18.6 L18.7 18.6 L18.7 61.4 L16.6 61.4 Z" fill="rgb(120, 181, 148)"/><path d="M18.2 18.6 L20.4 18.6 L20.4 61.4 L18.2 61.4 Z" fill="rgb(119, 181, 148)"/><path d="M19.9 18.6 L22.0 18.6 L22.0 61.4 L19.9 61.4 Z" fill="rgb(118, 180, 149)"/><path d="M21.5 18.6 L23.7 18.6 L23.7 61.4 L21.5 61.4 Z" fill="rgb(117, 180, 149)"/><path d="M23.2 18.6 L25.3 18.6 L25.3 61.4 L23.2 61.4 Z" fill="rgb(117, 180, 149)"/><path d="M24.8 18.6 L26.9 18.5 L26.9 61.5 L24.8 61.4 Z" fill="rgb(117, 180, 149)"/><path d="M26.4 18.5 L28.6 18.4 L28.6 61.6 L26.4 61.5 Z" fill="rgb(118, 181, 149)"/><path d="M28.1 18.4 L30.2 18.4 L30.2 61.6 L28.1 61.6 Z" fill="rgb(120, 181, 148)"/><path d="M29.7 18.4 L31.9 18.3 L31.9 61.7 L29.7 61.6 Z" fill="rgb(122, 181, 147)"/><path d="M31.4 18.3 L33.5 18.2 L33.5 61.8 L31.4 61.7 Z" fill="rgb(124, 181, 146)"/><path d="M33.0 18.2 L35.2 18.0 L35.2 62.0 L33.0 61.8 Z" fill="rgb(126, 182, 145)"/><path d="M34.7 18.0 L36.8 17.9 L36.8 62.1 L34.7 62.0 Z" fill="rgb(128, 182, 144)"/><path d="M36.3 17.9 L38.4 17.8 L38.4 62.2 L36.3 62.1 Z" fill="rgb(131, 182, 143)"/><path d="M37.9 17.8 L40.1 17.7 L40.1 62.3 L37.9 62.2 Z" fill="rgb(133, 183, 142)"/><path d="M39.6 17.7 L41.7 17.6 L41.7 62.4 L39.6 62.3 Z" fill="rgb(135, 183, 141)"/><path d="M41.2 17.6 L43.4 17.6 L43.4 62.4 L41.2 62.4 Z" fill="rgb(137, 183, 141)"/><path d="M42.9 17.6 L45.0 17.5 L45.0 62.5 L42.9 62.4 Z" fill="rgb(138, 184, 140)"/><path d="M44.5 17.5 L46.7 17.5 L46.7 62.5 L44.5 62.5 Z" fill="rgb(139, 184, 139)"/><path d="M46.2 17.5 L48.3 17.5 L48.3 62.5 L46.2 62.5 Z" fill="rgb(140, 184, 139)"/><path d="M47.8 17.5 L50.0 17.4 L50.0 62.6 L47.8 62.5 Z" fill="rgb(140, 184, 139)"/><path d="M49.5 17.4 L51.6 17.2 L51.6 62.8 L49.5 62.6 Z" fill="rgb(142, 184, 138)"/><path d="M51.1 17.2 L53.2 16.9 L53.2 63.1 L51.1 62.8 Z" fill="rgb(145, 184, 137)"/><path d="M52.7 16.9 L54.9 16.6 L54.9 63.4 L52.7 63.1 Z" fill="rgb(149, 185, 135)"/><path d="M54.4 16.6 L56.5 16.2 L56.5 63.8 L54.4 63.4 Z" fill="rgb(154, 186, 133)"/><path d="M56.0 16.2 L58.2 15.8 L58.2 64.2 L56.0 63.8 Z" fill="rgb(160, 187, 131)"/><path d="M57.7 15.8 L59.8 15.4 L59.8 64.6 L57.7 64.2 Z" fill="rgb(166, 187, 128)"/><path d="M59.3 15.4 L61.5 15.0 L61.5 65.0 L59.3 64.6 Z" fill="rgb(172, 188, 125)"/><path d="M61.0 15.0 L63.1 14.6 L63.1 65.4 L61.0 65.0 Z" fill="rgb(178, 189, 123)"/><path d="M62.6 14.6 L64.7 14.2 L64.7 65.8 L62.6 65.4 Z" fill="rgb(184, 190, 120)"/><path d="M64.2 14.2 L66.4 13.9 L66.4 66.1 L64.2 65.8 Z" fill="rgb(190, 191, 118)"/><path d="M65.9 13.9 L68.0 13.6 L68.0 66.4 L65.9 66.1 Z" fill="rgb(194, 192, 116)"/><path d="M67.5 13.6 L69.7 13.5 L69.7 66.5 L67.5 66.4 Z" fill="rgb(198, 192, 114)"/><path d="M69.2 13.5 L71.3 13.4 L71.3 66.6 L69.2 66.5 Z" fill="rgb(201, 193, 113)"/><path d="M70.8 13.4 L73.0 13.4 L73.0 66.6 L70.8 66.6 Z" fill="rgb(202, 193, 112)"/><path d="M72.5 13.4 L74.6 13.5 L74.6 66.5 L72.5 66.6 Z" fill="rgb(203, 193, 112)"/><path d="M74.1 13.5 L76.3 13.6 L76.3 66.4 L74.1 66.5 Z" fill="rgb(205, 193, 111)"/><path d="M75.8 13.6 L77.9 13.8 L77.9 66.2 L75.8 66.4 Z" fill="rgb(209, 194, 109)"/><path d="M77.4 13.8 L79.5 14.1 L79.5 65.9 L77.4 66.2 Z" fill="rgb(214, 195, 107)"/><path d="M79.0 14.1 L81.2 14.3 L81.2 65.7 L79.0 65.9 Z" fill="rgb(217, 193, 105)"/><path d="M80.7 14.3 L82.8 14.6 L82.8 65.4 L80.7 65.7 Z" fill="rgb(218, 190, 103)"/><path d="M82.3 14.6 L84.5 14.9 L84.5 65.1 L82.3 65.4 Z" fill="rgb(218, 186, 100)"/><path d="M84.0 14.9 L86.1 15.2 L86.1 64.8 L84.0 65.1 Z" fill="rgb(218, 182, 97)"/><path d="M85.6 15.2 L87.8 15.5 L87.8 64.5 L85.6 64.8 Z" fill="rgb(219, 178, 95)"/><path d="M87.3 15.5 L89.4 15.7 L89.4 64.3 L87.3 64.5 Z" fill="rgb(219, 174, 92)"/><path d="M88.9 15.7 L91.0 16.0 L91.0 64.0 L88.9 64.3 Z" fill="rgb(219, 171, 90)"/><path d="M90.5 16.0 L92.7 16.1 L92.7 63.9 L90.5 64.0 Z" fill="rgb(220, 168, 88)"/><path d="M92.2 16.1 L94.3 16.3 L94.3 63.7 L92.2 63.9 Z" fill="rgb(220, 165, 86)"/><path d="M93.8 16.3 L96.0 16.3 L96.0 63.7 L93.8 63.7 Z" fill="rgb(220, 163, 85)"/><path d="M95.5 16.3 L97.6 16.4 L97.6 63.6 L95.5 63.7 Z" fill="rgb(220, 162, 85)"/><path d="M97.1 16.4 L99.3 16.7 L99.3 63.3 L97.1 63.6 Z" fill="rgb(220, 162, 84)"/><path d="M98.8 16.7 L100.9 17.3 L100.9 62.7 L98.8 63.3 Z" fill="rgb(220, 161, 84)"/><path d="M100.4 17.3 L102.6 18.1 L102.6 61.9 L100.4 62.7 Z" fill="rgb(220, 159, 83)"/><path d="M102.1 18.1 L104.2 19.1 L104.2 60.9 L102.1 61.9 Z" fill="rgb(221, 157, 81)"/><path d="M103.7 19.1 L105.8 20.3 L105.8 59.7 L103.7 60.9 Z" fill="rgb(221, 154, 79)"/><path d="M105.3 20.3 L107.5 21.5 L107.5 58.5 L105.3 59.7 Z" fill="rgb(221, 150, 77)"/><path d="M107.0 21.5 L109.1 22.8 L109.1 57.2 L107.0 58.5 Z" fill="rgb(222, 147, 74)"/><path d="M108.6 22.8 L110.8 24.1 L110.8 55.9 L108.6 57.2 Z" fill="rgb(222, 143, 72)"/><path d="M110.3 24.1 L112.4 25.4 L112.4 54.6 L110.3 55.9 Z" fill="rgb(222, 139, 69)"/><path d="M111.9 25.4 L114.1 26.5 L114.1 53.5 L111.9 54.6 Z" fill="rgb(223, 135, 67)"/><path d="M113.6 26.5 L115.7 27.6 L115.7 52.4 L113.6 53.5 Z" fill="rgb(223, 131, 64)"/><path d="M115.2 27.6 L117.3 28.4 L117.3 51.6 L115.2 52.4 Z" fill="rgb(223, 128, 62)"/><path d="M116.8 28.4 L119.0 29.1 L119.0 50.9 L116.8 51.6 Z" fill="rgb(224, 126, 60)"/><path d="M118.5 29.1 L120.6 29.5 L120.6 50.5 L118.5 50.9 Z" fill="rgb(224, 124, 59)"/><path d="M120.1 29.5 L122.3 29.6 L122.3 50.4 L120.1 50.5 Z" fill="rgb(224, 122, 58)"/><path d="M121.8 29.6 L123.9 29.7 L123.9 50.3 L121.8 50.4 Z" fill="rgb(224, 122, 58)"/><path d="M123.4 29.7 L125.6 29.9 L125.6 50.1 L123.4 50.3 Z" fill="rgb(224, 122, 58)"/><path d="M125.1 29.9 L127.2 30.3 L127.2 49.7 L125.1 50.1 Z" fill="rgb(224, 121, 58)"/><path d="M126.7 30.3 L128.9 30.8 L128.9 49.2 L126.7 49.7 Z" fill="rgb(224, 119, 57)"/><path d="M128.4 30.8 L130.5 31.3 L130.5 48.7 L128.4 49.2 Z" fill="rgb(224, 117, 57)"/><path d="M130.0 31.3 L132.1 31.9 L132.1 48.1 L130.0 48.7 Z" fill="rgb(225, 115, 57)"/><path d="M131.6 31.9 L133.8 32.5 L133.8 47.5 L131.6 48.1 Z" fill="rgb(225, 113, 56)"/><path d="M133.3 32.5 L135.4 33.1 L135.4 46.9 L133.3 47.5 Z" fill="rgb(225, 110, 56)"/><path d="M134.9 33.1 L137.1 33.7 L137.1 46.3 L134.9 46.9 Z" fill="rgb(225, 108, 55)"/><path d="M136.6 33.7 L138.7 34.3 L138.7 45.7 L136.6 46.3 Z" fill="rgb(226, 105, 55)"/><path d="M138.2 34.3 L140.4 34.8 L140.4 45.2 L138.2 45.7 Z" fill="rgb(226, 103, 54)"/><path d="M139.9 34.8 L142.0 35.3 L142.0 44.7 L139.9 45.2 Z" fill="rgb(226, 101, 54)"/><path d="M141.5 35.3 L143.7 35.6 L143.7 44.4 L141.5 44.7 Z" fill="rgb(226, 99, 53)"/><path d="M143.2 35.6 L145.3 35.8 L145.3 44.2 L143.2 44.4 Z" fill="rgb(226, 98, 53)"/><path d="M144.8 35.8 L146.9 35.9 L146.9 44.1 L144.8 44.2 Z" fill="rgb(227, 97, 53)"/><path d="M146.4 35.9 L148.6 35.9 L148.6 44.1 L146.4 44.1 Z" fill="rgb(227, 97, 53)"/><path d="M148.1 35.9 L150.2 35.9 L150.2 44.1 L148.1 44.1 Z" fill="rgb(227, 96, 53)"/><path d="M149.7 35.9 L151.9 35.9 L151.9 44.1 L149.7 44.1 Z" fill="rgb(227, 96, 53)"/><path d="M151.4 35.9 L153.5 35.9 L153.5 44.1 L151.4 44.1 Z" fill="rgb(227, 95, 52)"/><path d="M153.0 35.9 L155.2 35.9 L155.2 44.1 L153.0 44.1 Z" fill="rgb(227, 94, 52)"/><path d="M154.7 35.9 L156.8 35.9 L156.8 44.1 L154.7 44.1 Z" fill="rgb(227, 93, 52)"/><path d="M156.3 35.9 L158.4 35.9 L158.4 44.1 L156.3 44.1 Z" fill="rgb(227, 92, 52)"/><path d="M157.9 35.9 L160.1 35.9 L160.1 44.1 L157.9 44.1 Z" fill="rgb(227, 91, 52)"/><path d="M159.6 35.9 L161.7 35.9 L161.7 44.1 L159.6 44.1 Z" fill="rgb(227, 90, 51)"/><path d="M161.2 35.9 L163.4 35.9 L163.4 44.1 L161.2 44.1 Z" fill="rgb(227, 89, 51)"/><path d="M162.9 35.9 L165.0 35.9 L165.0 44.1 L162.9 44.1 Z" fill="rgb(228, 87, 51)"/><path d="M164.5 35.9 L166.7 35.9 L166.7 44.1 L164.5 44.1 Z" fill="rgb(228, 86, 51)"/><path d="M166.2 35.9 L168.3 35.9 L168.3 44.1 L166.2 44.1 Z" fill="rgb(228, 85, 50)"/><path d="M167.8 35.9 L170.0 35.9 L170.0 44.1 L167.8 44.1 Z" fill="rgb(228, 85, 50)"/><path d="M169.5 35.9 L171.6 35.9 L171.6 44.1 L169.5 44.1 Z" fill="rgb(228, 84, 50)"/><path d="M171.1 35.9 L173.2 35.9 L173.2 44.1 L171.1 44.1 Z" fill="rgb(228, 84, 50)"/><path d="M172.7 35.9 L174.9 35.9 L174.9 44.1 L172.7 44.1 Z" fill="rgb(228, 84, 50)"/><path d="M174.4 35.9 L176.5 35.9 L176.5 44.1 L174.4 44.1 Z" fill="rgb(228, 84, 50)"/><path d="M176.0 35.9 L178.2 35.8 L178.2 44.2 L176.0 44.1 Z" fill="rgb(228, 84, 50)"/><path d="M177.7 35.8 L179.8 35.8 L179.8 44.2 L177.7 44.2 Z" fill="rgb(228, 85, 50)"/><path d="M179.3 35.8 L181.5 35.8 L181.5 44.2 L179.3 44.2 Z" fill="rgb(228, 85, 50)"/><path d="M181.0 35.8 L183.1 35.8 L183.1 44.2 L181.0 44.2 Z" fill="rgb(228, 85, 50)"/><path d="M182.6 35.8 L184.7 35.7 L184.7 44.3 L182.6 44.2 Z" fill="rgb(228, 86, 50)"/><path d="M184.2 35.7 L186.4 35.7 L186.4 44.3 L184.2 44.3 Z" fill="rgb(228, 86, 51)"/><path d="M185.9 35.7 L188.0 35.6 L188.0 44.4 L185.9 44.3 Z" fill="rgb(228, 86, 51)"/><path d="M187.5 35.6 L189.7 35.6 L189.7 44.4 L187.5 44.4 Z" fill="rgb(228, 87, 51)"/><path d="M189.2 35.6 L191.3 35.6 L191.3 44.4 L189.2 44.4 Z" fill="rgb(228, 87, 51)"/><path d="M190.8 35.6 L193.0 35.6 L193.0 44.4 L190.8 44.4 Z" fill="rgb(228, 88, 51)"/><path d="M192.5 35.6 L194.6 35.5 L194.6 44.5 L192.5 44.4 Z" fill="rgb(228, 88, 51)"/><path d="M194.1 35.5 L196.3 35.5 L196.3 44.5 L194.1 44.5 Z" fill="rgb(228, 88, 51)"/><path d="M195.8 35.5 L197.9 35.5 L197.9 44.5 L195.8 44.5 Z" fill="rgb(228, 88, 51)"/><path d="M197.4 35.5 L199.5 35.5 L199.5 44.5 L197.4 44.5 Z" fill="rgb(228, 88, 51)"/><path d="M199.0 35.5 L201.2 35.3 L201.2 44.7 L199.0 44.5 Z" fill="rgb(227, 88, 51)"/><path d="M200.7 35.3 L202.8 35.1 L202.8 44.9 L200.7 44.7 Z" fill="rgb(227, 89, 51)"/><path d="M202.3 35.1 L204.5 34.8 L204.5 45.2 L202.3 44.9 Z" fill="rgb(227, 90, 51)"/><path d="M204.0 34.8 L206.1 34.5 L206.1 45.5 L204.0 45.2 Z" fill="rgb(227, 92, 52)"/><path d="M205.6 34.5 L207.8 34.1 L207.8 45.9 L205.6 45.5 Z" fill="rgb(227, 93, 52)"/><path d="M207.3 34.1 L209.4 33.7 L209.4 46.3 L207.3 45.9 Z" fill="rgb(227, 95, 52)"/><path d="M208.9 33.7 L211.0 33.3 L211.0 46.7 L208.9 46.3 Z" fill="rgb(227, 97, 53)"/><path d="M210.5 33.3 L212.7 33.0 L212.7 47.0 L210.5 46.7 Z" fill="rgb(226, 99, 53)"/><path d="M212.2 33.0 L214.3 32.6 L214.3 47.4 L212.2 47.0 Z" fill="rgb(226, 101, 54)"/><path d="M213.8 32.6 L216.0 32.3 L216.0 47.7 L213.8 47.4 Z" fill="rgb(226, 103, 54)"/><path d="M215.5 32.3 L217.6 32.0 L217.6 48.0 L215.5 47.7 Z" fill="rgb(226, 104, 54)"/><path d="M217.1 32.0 L219.3 31.8 L219.3 48.2 L217.1 48.0 Z" fill="rgb(226, 105, 55)"/><path d="M218.8 31.8 L220.9 31.7 L220.9 48.3 L218.8 48.2 Z" fill="rgb(226, 106, 55)"/><path d="M220.4 31.7 L222.6 31.6 L222.6 48.4 L220.4 48.3 Z" fill="rgb(226, 107, 55)"/><path d="M222.1 31.6 L224.2 31.5 L224.2 48.5 L222.1 48.4 Z" fill="rgb(226, 107, 55)"/><path d="M223.7 31.5 L225.8 31.1 L225.8 48.9 L223.7 48.5 Z" fill="rgb(225, 108, 55)"/><path d="M225.3 31.1 L227.5 30.5 L227.5 49.5 L225.3 48.9 Z" fill="rgb(225, 109, 55)"/><path d="M227.0 30.5 L229.1 29.7 L229.1 50.3 L227.0 49.5 Z" fill="rgb(225, 110, 56)"/><path d="M228.6 29.7 L230.8 28.7 L230.8 51.3 L228.6 50.3 Z" fill="rgb(225, 112, 56)"/><path d="M230.3 28.7 L232.4 27.7 L232.4 52.3 L230.3 51.3 Z" fill="rgb(225, 115, 56)"/><path d="M231.9 27.7 L234.1 26.6 L234.1 53.4 L231.9 52.3 Z" fill="rgb(225, 117, 57)"/><path d="M233.6 26.6 L235.7 25.4 L235.7 54.6 L233.6 53.4 Z" fill="rgb(224, 120, 58)"/><path d="M235.2 25.4 L237.3 24.3 L237.3 55.7 L235.2 54.6 Z" fill="rgb(224, 123, 59)"/><path d="M236.8 24.3 L239.0 23.2 L239.0 56.8 L236.8 55.7 Z" fill="rgb(223, 127, 62)"/><path d="M238.5 23.2 L240.6 22.3 L240.6 57.7 L238.5 56.8 Z" fill="rgb(223, 132, 64)"/><path d="M240.1 22.3 L242.3 21.4 L242.3 58.6 L240.1 57.7 Z" fill="rgb(223, 135, 67)"/><path d="M241.8 21.4 L243.9 20.8 L243.9 59.2 L241.8 58.6 Z" fill="rgb(222, 139, 69)"/><path d="M243.4 20.8 L245.6 20.3 L245.6 59.7 L243.4 59.2 Z" fill="rgb(222, 141, 71)"/><path d="M245.1 20.3 L247.2 20.1 L247.2 59.9 L245.1 59.7 Z" fill="rgb(222, 143, 72)"/><path d="M246.7 20.1 L248.9 20.0 L248.9 60.0 L246.7 59.9 Z" fill="rgb(222, 144, 72)"/><path d="M248.4 20.0 L250.5 19.8 L250.5 60.2 L248.4 60.0 Z" fill="rgb(222, 144, 73)"/><path d="M250.0 19.8 L252.1 19.5 L252.1 60.5 L250.0 60.2 Z" fill="rgb(222, 146, 74)"/><path d="M251.6 19.5 L253.8 19.0 L253.8 61.0 L251.6 60.5 Z" fill="rgb(221, 149, 76)"/><path d="M253.3 19.0 L255.4 18.4 L255.4 61.6 L253.3 61.0 Z" fill="rgb(221, 153, 78)"/><path d="M254.9 18.4 L257.1 17.8 L257.1 62.2 L254.9 61.6 Z" fill="rgb(221, 157, 81)"/><path d="M256.6 17.8 L258.7 17.1 L258.7 62.9 L256.6 62.2 Z" fill="rgb(220, 162, 84)"/><path d="M258.2 17.1 L260.4 16.5 L260.4 63.5 L258.2 62.9 Z" fill="rgb(220, 167, 88)"/><path d="M259.9 16.5 L262.0 15.8 L262.0 64.2 L259.9 63.5 Z" fill="rgb(219, 173, 91)"/><path d="M261.5 15.8 L263.7 15.1 L263.7 64.9 L261.5 64.2 Z" fill="rgb(219, 178, 95)"/><path d="M263.2 15.1 L265.3 14.5 L265.3 65.5 L263.2 64.9 Z" fill="rgb(218, 184, 99)"/><path d="M264.8 14.5 L266.9 13.9 L266.9 66.1 L264.8 65.5 Z" fill="rgb(218, 188, 102)"/><path d="M266.4 13.9 L268.6 13.5 L268.6 66.5 L266.4 66.1 Z" fill="rgb(217, 193, 105)"/><path d="M268.1 13.5 L270.2 13.2 L270.2 66.8 L268.1 66.5 Z" fill="rgb(215, 195, 107)"/><path d="M269.7 13.2 L271.9 13.0 L271.9 67.0 L269.7 66.8 Z" fill="rgb(210, 194, 109)"/><path d="M271.4 13.0 L273.5 13.0 L273.5 67.0 L271.4 67.0 Z" fill="rgb(207, 194, 110)"/><path d="M273.0 13.0 L275.2 13.2 L275.2 66.8 L273.0 67.0 Z" fill="rgb(206, 193, 111)"/><path d="M274.7 13.2 L276.8 13.4 L276.8 66.6 L274.7 66.8 Z" fill="rgb(205, 193, 111)"/><path d="M276.3 13.4 L278.4 13.7 L278.4 66.3 L276.3 66.6 Z" fill="rgb(202, 193, 112)"/><path d="M277.9 13.7 L280.1 14.2 L280.1 65.8 L277.9 66.3 Z" fill="rgb(198, 192, 114)"/><path d="M279.6 14.2 L281.7 14.7 L281.7 65.3 L279.6 65.8 Z" fill="rgb(193, 191, 116)"/><path d="M281.2 14.7 L283.4 15.2 L283.4 64.8 L281.2 65.3 Z" fill="rgb(187, 191, 119)"/><path d="M282.9 15.2 L285.0 15.7 L285.0 64.3 L282.9 64.8 Z" fill="rgb(181, 190, 121)"/><path d="M284.5 15.7 L286.7 16.3 L286.7 63.7 L284.5 64.3 Z" fill="rgb(175, 189, 124)"/><path d="M286.2 16.3 L288.3 16.8 L288.3 63.2 L286.2 63.7 Z" fill="rgb(169, 188, 127)"/><path d="M287.8 16.8 L290.0 17.3 L290.0 62.7 L287.8 63.2 Z" fill="rgb(162, 187, 130)"/><path d="M289.5 17.3 L291.6 17.7 L291.6 62.3 L289.5 62.7 Z" fill="rgb(157, 186, 132)"/><path d="M291.1 17.7 L293.2 18.1 L293.2 61.9 L291.1 62.3 Z" fill="rgb(152, 185, 134)"/><path d="M292.7 18.1 L294.9 18.4 L294.9 61.6 L292.7 61.9 Z" fill="rgb(147, 185, 136)"/><path d="M294.4 18.4 L296.5 18.5 L296.5 61.5 L294.4 61.6 Z" fill="rgb(144, 184, 137)"/><path d="M296.0 18.5 L298.2 18.6 L298.2 61.4 L296.0 61.5 Z" fill="rgb(142, 184, 138)"/><path d="M297.7 18.6 L299.8 18.6 L299.8 61.4 L297.7 61.4 Z" fill="rgb(142, 184, 138)"/><path d="M299.3 18.6 L301.5 18.6 L301.5 61.4 L299.3 61.4 Z" fill="rgb(141, 184, 139)"/><path d="M301.0 18.6 L303.1 18.6 L303.1 61.4 L301.0 61.4 Z" fill="rgb(140, 184, 139)"/><path d="M302.6 18.6 L304.7 18.6 L304.7 61.4 L302.6 61.4 Z" fill="rgb(139, 184, 140)"/><path d="M304.2 18.6 L306.4 18.6 L306.4 61.4 L304.2 61.4 Z" fill="rgb(137, 183, 140)"/><path d="M305.9 18.6 L308.0 18.6 L308.0 61.4 L305.9 61.4 Z" fill="rgb(135, 183, 141)"/><path d="M307.5 18.6 L309.7 18.6 L309.7 61.4 L307.5 61.4 Z" fill="rgb(133, 183, 142)"/><path d="M309.2 18.6 L310.5 18.6 L310.5 61.4 L309.2 61.4 Z" fill="rgb(130, 182, 143)"/>
  <path d="M10.0 18.6 L11.6 18.6 L13.3 18.6 L14.9 18.6 L16.6 18.6 L18.2 18.6 L19.9 18.6 L21.5 18.6 L23.2 18.6 L24.8 18.6 L26.4 18.5 L28.1 18.4 L29.7 18.4 L31.4 18.3 L33.0 18.2 L34.7 18.0 L36.3 17.9 L37.9 17.8 L39.6 17.7 L41.2 17.6 L42.9 17.6 L44.5 17.5 L46.2 17.5 L47.8 17.5 L49.5 17.4 L51.1 17.2 L52.7 16.9 L54.4 16.6 L56.0 16.2 L57.7 15.8 L59.3 15.4 L61.0 15.0 L62.6 14.6 L64.2 14.2 L65.9 13.9 L67.5 13.6 L69.2 13.5 L70.8 13.4 L72.5 13.4 L74.1 13.5 L75.8 13.6 L77.4 13.8 L79.0 14.1 L80.7 14.3 L82.3 14.6 L84.0 14.9 L85.6 15.2 L87.3 15.5 L88.9 15.7 L90.5 16.0 L92.2 16.1 L93.8 16.3 L95.5 16.3 L97.1 16.4 L98.8 16.7 L100.4 17.3 L102.1 18.1 L103.7 19.1 L105.3 20.3 L107.0 21.5 L108.6 22.8 L110.3 24.1 L111.9 25.4 L113.6 26.5 L115.2 27.6 L116.8 28.4 L118.5 29.1 L120.1 29.5 L121.8 29.6 L123.4 29.7 L125.1 29.9 L126.7 30.3 L128.4 30.8 L130.0 31.3 L131.6 31.9 L133.3 32.5 L134.9 33.1 L136.6 33.7 L138.2 34.3 L139.9 34.8 L141.5 35.3 L143.2 35.6 L144.8 35.8 L146.4 35.9 L148.1 35.9 L149.7 35.9 L151.4 35.9 L153.0 35.9 L154.7 35.9 L156.3 35.9 L157.9 35.9 L159.6 35.9 L161.2 35.9 L162.9 35.9 L164.5 35.9 L166.2 35.9 L167.8 35.9 L169.5 35.9 L171.1 35.9 L172.7 35.9 L174.4 35.9 L176.0 35.9 L177.7 35.8 L179.3 35.8 L181.0 35.8 L182.6 35.8 L184.2 35.7 L185.9 35.7 L187.5 35.6 L189.2 35.6 L190.8 35.6 L192.5 35.6 L194.1 35.5 L195.8 35.5 L197.4 35.5 L199.0 35.5 L200.7 35.3 L202.3 35.1 L204.0 34.8 L205.6 34.5 L207.3 34.1 L208.9 33.7 L210.5 33.3 L212.2 33.0 L213.8 32.6 L215.5 32.3 L217.1 32.0 L218.8 31.8 L220.4 31.7 L222.1 31.6 L223.7 31.5 L225.3 31.1 L227.0 30.5 L228.6 29.7 L230.3 28.7 L231.9 27.7 L233.6 26.6 L235.2 25.4 L236.8 24.3 L238.5 23.2 L240.1 22.3 L241.8 21.4 L243.4 20.8 L245.1 20.3 L246.7 20.1 L248.4 20.0 L250.0 19.8 L251.6 19.5 L253.3 19.0 L254.9 18.4 L256.6 17.8 L258.2 17.1 L259.9 16.5 L261.5 15.8 L263.2 15.1 L264.8 14.5 L266.4 13.9 L268.1 13.5 L269.7 13.2 L271.4 13.0 L273.0 13.0 L274.7 13.2 L276.3 13.4 L277.9 13.7 L279.6 14.2 L281.2 14.7 L282.9 15.2 L284.5 15.7 L286.2 16.3 L287.8 16.8 L289.5 17.3 L291.1 17.7 L292.7 18.1 L294.4 18.4 L296.0 18.5 L297.7 18.6 L299.3 18.6 L301.0 18.6 L302.6 18.6 L304.2 18.6 L305.9 18.6 L307.5 18.6 L309.2 18.6 L309.2 61.4 L307.5 61.4 L305.9 61.4 L304.2 61.4 L302.6 61.4 L301.0 61.4 L299.3 61.4 L297.7 61.4 L296.0 61.5 L294.4 61.6 L292.7 61.9 L291.1 62.3 L289.5 62.7 L287.8 63.2 L286.2 63.7 L284.5 64.3 L282.9 64.8 L281.2 65.3 L279.6 65.8 L277.9 66.3 L276.3 66.6 L274.7 66.8 L273.0 67.0 L271.4 67.0 L269.7 66.8 L268.1 66.5 L266.4 66.1 L264.8 65.5 L263.2 64.9 L261.5 64.2 L259.9 63.5 L258.2 62.9 L256.6 62.2 L254.9 61.6 L253.3 61.0 L251.6 60.5 L250.0 60.2 L248.4 60.0 L246.7 59.9 L245.1 59.7 L243.4 59.2 L241.8 58.6 L240.1 57.7 L238.5 56.8 L236.8 55.7 L235.2 54.6 L233.6 53.4 L231.9 52.3 L230.3 51.3 L228.6 50.3 L227.0 49.5 L225.3 48.9 L223.7 48.5 L222.1 48.4 L220.4 48.3 L218.8 48.2 L217.1 48.0 L215.5 47.7 L213.8 47.4 L212.2 47.0 L210.5 46.7 L208.9 46.3 L207.3 45.9 L205.6 45.5 L204.0 45.2 L202.3 44.9 L200.7 44.7 L199.0 44.5 L197.4 44.5 L195.8 44.5 L194.1 44.5 L192.5 44.4 L190.8 44.4 L189.2 44.4 L187.5 44.4 L185.9 44.3 L184.2 44.3 L182.6 44.2 L181.0 44.2 L179.3 44.2 L177.7 44.2 L176.0 44.1 L174.4 44.1 L172.7 44.1 L171.1 44.1 L169.5 44.1 L167.8 44.1 L166.2 44.1 L164.5 44.1 L162.9 44.1 L161.2 44.1 L159.6 44.1 L157.9 44.1 L156.3 44.1 L154.7 44.1 L153.0 44.1 L151.4 44.1 L149.7 44.1 L148.1 44.1 L146.4 44.1 L144.8 44.2 L143.2 44.4 L141.5 44.7 L139.9 45.2 L138.2 45.7 L136.6 46.3 L134.9 46.9 L133.3 47.5 L131.6 48.1 L130.0 48.7 L128.4 49.2 L126.7 49.7 L125.1 50.1 L123.4 50.3 L121.8 50.4 L120.1 50.5 L118.5 50.9 L116.8 51.6 L115.2 52.4 L113.6 53.5 L111.9 54.6 L110.3 55.9 L108.6 57.2 L107.0 58.5 L105.3 59.7 L103.7 60.9 L102.1 61.9 L100.4 62.7 L98.8 63.3 L97.1 63.6 L95.5 63.7 L93.8 63.7 L92.2 63.9 L90.5 64.0 L88.9 64.3 L87.3 64.5 L85.6 64.8 L84.0 65.1 L82.3 65.4 L80.7 65.7 L79.0 65.9 L77.4 66.2 L75.8 66.4 L74.1 66.5 L72.5 66.6 L70.8 66.6 L69.2 66.5 L67.5 66.4 L65.9 66.1 L64.2 65.8 L62.6 65.4 L61.0 65.0 L59.3 64.6 L57.7 64.2 L56.0 63.8 L54.4 63.4 L52.7 63.1 L51.1 62.8 L49.5 62.6 L47.8 62.5 L46.2 62.5 L44.5 62.5 L42.9 62.4 L41.2 62.4 L39.6 62.3 L37.9 62.2 L36.3 62.1 L34.7 62.0 L33.0 61.8 L31.4 61.7 L29.7 61.6 L28.1 61.6 L26.4 61.5 L24.8 61.4 L23.2 61.4 L21.5 61.4 L19.9 61.4 L18.2 61.4 L16.6 61.4 L14.9 61.4 L13.3 61.4 L11.6 61.4 L10.0 61.4 Z" fill="none" stroke="#1a1a1a" stroke-opacity="0.22" stroke-width="0.8" stroke-linejoin="round"/>
</svg>
